<svg xmlns="http://www.w3.org/2000/svg" width="50.858" height="47.68" viewBox="0 0 50.858 47.68">
  <path id="acceso-paseador" d="M44,15.4a5.961,5.961,0,0,0-11.123,2.98v2.98h-4.47a10.442,10.442,0,0,1-10.43-10.43V.5H15V10.93A13.391,13.391,0,0,0,19.99,21.36H13.509A7.533,7.533,0,0,0,8.94,22.9V16.89A7.458,7.458,0,0,0,1.49,9.44H0V22.85a7.463,7.463,0,0,0,5.96,7.3V43.71a4.378,4.378,0,0,0,1.383,3.184,4.6,4.6,0,0,0,3.186,1.286h7.45v-1.8A7.079,7.079,0,0,0,14.546,40.3,7.386,7.386,0,0,0,15,37.75V36.26h8.94v7.45a4.475,4.475,0,0,0,4.47,4.47h7.45V46.69a7.464,7.464,0,0,0-3.463-6.3,7.39,7.39,0,0,0,.483-2.632V36.11a7.463,7.463,0,0,0,5.96-7.3V27.064a4.491,4.491,0,0,0,2.724-2.724h1.746a7.551,7.551,0,0,0,5.305-2.17,7.337,7.337,0,0,0,2.244-5.28V15.4ZM2.98,22.85V12.675A4.478,4.478,0,0,1,5.96,16.89V27.064A4.478,4.478,0,0,1,2.98,22.85Zm9.039,10.43v4.47a4.444,4.444,0,0,1-.736,2.447L10.2,41.844l1.88.592A4.151,4.151,0,0,1,14.827,45.2h-4.3A1.583,1.583,0,0,1,8.94,43.71V28.81a4.581,4.581,0,0,1,4.569-4.47h13.41v4.118L24.508,33.28Zm20.6,11.92H28.409a1.492,1.492,0,0,1-1.49-1.49V35.121l1.49-2.98,1.49,2.98v2.641a4.438,4.438,0,0,1-.755,2.474l-1.069,1.6,1.814.636A4.475,4.475,0,0,1,32.623,45.2Zm-.357-12.007L29.9,28.458V24.34h3.236a4.491,4.491,0,0,0,2.724,2.724V28.81A4.477,4.477,0,0,1,32.266,33.193ZM43.309,21.36h-1.49V19.87h-2.98v2.98a1.49,1.49,0,1,1-2.98,0V18.38a2.981,2.981,0,0,1,5.791-.993L42,18.38h5.606A4.638,4.638,0,0,1,43.309,21.36Zm0,0" transform="translate(0 -0.5)" fill="#919191"/>
</svg>
