<svg xmlns="http://www.w3.org/2000/svg" width="49.751" height="46.824" viewBox="0 0 49.751 46.824">
  <g id="acceso-empresa" transform="translate(0 -15.062)">
    <path id="Trazado_47721" data-name="Trazado 47721" d="M299.988,273.679c-2.812,0-4.993,3.141-4.993,5.843,0,2.555,1.913,4.142,4.993,4.142s4.993-1.587,4.993-4.142C304.98,276.82,302.8,273.679,299.988,273.679Zm0,7.07c-2.077,0-2.077-.86-2.077-1.227,0-1.341,1.126-2.928,2.077-2.928s2.078,1.587,2.078,2.928C302.065,279.889,302.065,280.749,299.988,280.749Z" transform="translate(-266.33 -233.487)" fill="##000000"/>
    <path id="Trazado_47722" data-name="Trazado 47722" d="M306.3,225.938h2.92v2.915H306.3Z" transform="translate(-276.534 -190.385)" fill="##000000"/>
    <path id="Trazado_47723" data-name="Trazado 47723" d="M356.4,225.938h2.92v2.915H356.4Z" transform="translate(-321.767 -190.385)" fill="##000000"/>
    <path id="Trazado_47724" data-name="Trazado 47724" d="M391.6,264.062h2.92v2.915H391.6Z" transform="translate(-353.546 -224.805)" fill="##000000"/>
    <path id="Trazado_47725" data-name="Trazado 47725" d="M271.1,264.062h2.92v2.915H271.1Z" transform="translate(-244.755 -224.805)" fill="##000000"/>
    <path id="Trazado_47726" data-name="Trazado 47726" d="M49.751,25.3V22.03l-3.484-6.968H3.484L0,22.03V25.3a4.392,4.392,0,0,0,2.927,4.135v23.68H0v8.77H49.751v-8.77H46.824V29.436A4.392,4.392,0,0,0,49.751,25.3Zm-4.385,1.47A1.471,1.471,0,0,1,43.9,25.3v-1.47h2.939V25.3A1.471,1.471,0,0,1,45.366,26.771ZM40.982,25.3a1.47,1.47,0,0,1-2.939,0v-1.47h2.939Zm-5.855,0a1.47,1.47,0,0,1-2.939,0h0v-1.47h2.939Zm-17.564,0a1.47,1.47,0,0,1-2.939,0v-1.47h2.939Zm-5.855,0a1.47,1.47,0,0,1-2.939,0v-1.47h2.939Zm8.77-1.47h2.939V25.3a1.47,1.47,0,1,1-2.939,0Zm5.855,0h2.939V25.3h0a1.47,1.47,0,0,1-2.939,0Zm18.132-5.855,1.47,2.939H3.816l1.47-2.939ZM2.915,23.832H5.855V25.3a1.47,1.47,0,0,1-2.939,0ZM46.836,58.971H2.915V56.032H46.836ZM20.491,38.48H11.7V35.541h8.794ZM11.7,41.4h8.794V53.116H11.7ZM23.406,53.116V32.626H8.782V53.116H5.842V29.436a4.387,4.387,0,0,0,1.47-.874,4.375,4.375,0,0,0,5.855,0,4.375,4.375,0,0,0,5.855,0,4.375,4.375,0,0,0,5.855,0,4.375,4.375,0,0,0,5.855,0,4.375,4.375,0,0,0,5.855,0,4.375,4.375,0,0,0,5.855,0,4.387,4.387,0,0,0,1.47.874v23.68h-20.5Z" transform="translate(0 0)" fill="##000000"/>
  </g>
</svg>
