<svg id="acceso-cliente" xmlns="http://www.w3.org/2000/svg" width="53.51" height="53.51" viewBox="0 0 53.51 53.51">
  <path id="Trazado_47651" data-name="Trazado 47651" d="M49.547,28.835l-7.012-3.224a8.67,8.67,0,0,0,3.424-6.9V15.651a8.634,8.634,0,0,0-1.8-5.283,7.389,7.389,0,0,0,.585-2.9,7.465,7.465,0,1,0-14.345,2.9,8.633,8.633,0,0,0-1.8,5.284V18.71a8.669,8.669,0,0,0,3.416,6.895l-7.026,3.23a6.825,6.825,0,0,0-3.963,6.184v2.591l-4.189-2.678V29.661a9.767,9.767,0,0,0-2.88-6.952l-2.476-2.476H8.795v3.4H4.254V25.2a2.69,2.69,0,0,1-2.687,2.687H0V31a5.815,5.815,0,0,0,5.079,5.761v8.464l-.687.4a5.308,5.308,0,0,0-2.6,4.529l-.016,3.357H53.51V35.019a6.825,6.825,0,0,0-3.963-6.184ZM35.959,27.29a8.723,8.723,0,0,0,2.618,0v1.719a1.309,1.309,0,1,1-2.618,0Zm1.321-17.183a5.554,5.554,0,0,1,5.3,3.913H31.98A5.554,5.554,0,0,1,37.279,10.106Zm0-6.97a4.335,4.335,0,0,1,4.33,4.33,4.4,4.4,0,0,1-.048.639,8.649,8.649,0,0,0-8.564,0,4.327,4.327,0,0,1,4.282-4.969ZM31.735,17.154H42.824V18.71a5.544,5.544,0,1,1-11.089,0V17.154ZM24.2,50.376H16.455V47.565a4.89,4.89,0,0,1,1.441-3.48l-2.217-2.217a8,8,0,0,0-2.36,5.7v2.811h-8.4v-.207a2.158,2.158,0,0,1,1.058-1.841l2.232-1.314V33.667H5.806A2.674,2.674,0,0,1,3.135,31v-.187a5.846,5.846,0,0,0,4.04-4.04H11.93V25.124A6.649,6.649,0,0,1,13.7,29.661v6.988l7.349,4.7A6.8,6.8,0,0,1,24.2,47.1v3.277Zm11.475,0v-.14a3.122,3.122,0,0,1,3.119-3.119h1.114v3.258Zm14.7,0H43.041V47.117h2.839V40.15H42.745v3.832H38.792a6.261,6.261,0,0,0-6.254,6.254v.14h-5.2V47.617a5.9,5.9,0,0,0,4.747-5.776V34.6H28.945v7.237a2.758,2.758,0,0,1-1.96,2.636,9.887,9.887,0,0,0-2.825-4.67V35.019A3.681,3.681,0,0,1,26.3,31.684l6.525-3v.328a4.445,4.445,0,1,0,8.889,0v-.328l6.525,3a3.681,3.681,0,0,1,2.137,3.335Z" transform="translate(0 -0.001)" fill="#919191"/>
  <path id="Trazado_47652" data-name="Trazado 47652" d="M341.7,348.828h3.135v3.135H341.7Z" transform="translate(-305.986 -312.371)" fill="#919191"/>
</svg>
