<svg id="brush_2" data-name="brush 2" xmlns="http://www.w3.org/2000/svg" width="22.163" height="22.163" viewBox="0 0 22.163 22.163">
  <path id="Trazado_47835" data-name="Trazado 47835" d="M16.769,17.5l1.958-1.958L15.79,12.605l3.264-3.264L17.1,7.383l-3.264,3.264L10.891,7.711,8.933,9.668Zm-1.307,1.307L7.626,10.975,5.017,13.584l7.836,7.836ZM13.832,8.034l2.609-2.609a.925.925,0,0,1,1.307,0L21.012,8.69a.925.925,0,0,1,0,1.307L18.4,12.605l2.286,2.286a.942.942,0,0,1,.268.656.923.923,0,0,1-.268.651L13.5,23.382a.925.925,0,0,1-1.307,0L3.055,14.24a.925.925,0,0,1,0-1.307L10.24,5.748a.923.923,0,0,1,.651-.268.942.942,0,0,1,.656.268Z" transform="translate(-1.499 -2.775)"/>
  <path id="Trazado_47836" data-name="Trazado 47836" d="M0,0H22.163V22.163H0Z" fill="none"/>
</svg>
