<svg xmlns="http://www.w3.org/2000/svg" width="13.396" height="13.396" viewBox="0 0 13.396 13.396">
  <path id="building_3914425" d="M3.907,7.814a.558.558,0,0,1-.558.558H2.791a.558.558,0,1,1,0-1.116h.558A.558.558,0,0,1,3.907,7.814ZM6.14,7.256H5.582a.558.558,0,1,0,0,1.116H6.14a.558.558,0,1,0,0-1.116ZM3.349,9.489H2.791a.558.558,0,1,0,0,1.116h.558a.558.558,0,1,0,0-1.116Zm2.791,0H5.582a.558.558,0,1,0,0,1.116H6.14a.558.558,0,1,0,0-1.116Zm-2.791-6.7H2.791a.558.558,0,1,0,0,1.116h.558a.558.558,0,1,0,0-1.116Zm2.791,0H5.582a.558.558,0,1,0,0,1.116H6.14a.558.558,0,1,0,0-1.116ZM3.349,5.023H2.791a.558.558,0,1,0,0,1.116h.558a.558.558,0,1,0,0-1.116Zm2.791,0H5.582a.558.558,0,1,0,0,1.116H6.14a.558.558,0,1,0,0-1.116Zm7.256.558v5.023A2.794,2.794,0,0,1,10.605,13.4H2.791A2.794,2.794,0,0,1,0,10.605V2.791A2.794,2.794,0,0,1,2.791,0H6.14A2.794,2.794,0,0,1,8.931,2.791h1.674A2.794,2.794,0,0,1,13.4,5.582ZM2.791,12.28H7.814V2.791A1.674,1.674,0,0,0,6.14,1.116H2.791A1.674,1.674,0,0,0,1.116,2.791v7.814A1.674,1.674,0,0,0,2.791,12.28Zm9.489-6.7a1.674,1.674,0,0,0-1.674-1.674H8.931V12.28h1.674a1.674,1.674,0,0,0,1.674-1.674ZM10.605,7.256a.558.558,0,1,0,.558.558A.558.558,0,0,0,10.605,7.256Zm0,2.233a.558.558,0,1,0,.558.558A.558.558,0,0,0,10.605,9.489Zm0-4.465a.558.558,0,1,0,.558.558A.558.558,0,0,0,10.605,5.023Z" fill="#100f0f"/>
</svg>
