<svg id="calendar_event" data-name="calendar event" xmlns="http://www.w3.org/2000/svg" width="15.731" height="15.731" viewBox="0 0 15.731 15.731">
  <path id="Trazado_47891" data-name="Trazado 47891" d="M13.832,3.311h2.622a.657.657,0,0,1,.655.655V14.453a.657.657,0,0,1-.655.655H4.655A.657.657,0,0,1,4,14.453V3.966a.657.657,0,0,1,.655-.655H7.277V2H8.588V3.311h3.933V2h1.311ZM15.8,7.244V4.622H13.832V5.933H12.521V4.622H8.588V5.933H7.277V4.622H5.311V7.244Zm0,1.311H5.311V13.8H15.8ZM6.622,9.865H9.9v2.622H6.622Z" transform="translate(-2.689 -1.345)"/>
  <path id="Trazado_47892" data-name="Trazado 47892" d="M0,0H15.731V15.731H0Z" fill="none"/>
</svg>
