<svg id="camera_3917108" xmlns="http://www.w3.org/2000/svg" width="11.511" height="11.511" viewBox="0 0 11.511 11.511">
  <path id="Trazado_47837" data-name="Trazado 47837" d="M9.113,1.918H8.869L7.822.56A1.45,1.45,0,0,0,6.682,0H4.829a1.45,1.45,0,0,0-1.14.56L2.642,1.918H2.4A2.4,2.4,0,0,0,0,4.317v4.8a2.4,2.4,0,0,0,2.4,2.4H9.113a2.4,2.4,0,0,0,2.4-2.4v-4.8a2.4,2.4,0,0,0-2.4-2.4ZM4.449,1.146a.482.482,0,0,1,.38-.187H6.682a.483.483,0,0,1,.38.187l.6.772h-3.8Zm6.1,7.966a1.439,1.439,0,0,1-1.439,1.439H2.4A1.439,1.439,0,0,1,.959,9.113v-4.8A1.439,1.439,0,0,1,2.4,2.878H9.113a1.439,1.439,0,0,1,1.439,1.439Z"/>
  <path id="Trazado_47838" data-name="Trazado 47838" d="M8.878,8a2.878,2.878,0,1,0,2.878,2.878A2.878,2.878,0,0,0,8.878,8Zm0,4.8A1.918,1.918,0,1,1,10.8,10.878,1.918,1.918,0,0,1,8.878,12.8Z" transform="translate(-3.122 -4.163)"/>
</svg>
