<svg id="checkbox" xmlns="http://www.w3.org/2000/svg" width="22.989" height="22.989" viewBox="0 0 22.989 22.989">
  <path id="Trazado_47864" data-name="Trazado 47864" d="M6.958,6H22.284a.961.961,0,0,1,.958.958V22.284a.961.961,0,0,1-.958.958H6.958A.961.961,0,0,1,6,22.284V6.958A.961.961,0,0,1,6.958,6Zm.958,1.916v13.41h13.41V7.916Zm5.752,10.537L9.6,14.386l1.355-1.351,2.711,2.706,5.417-5.417L20.44,11.68Z" transform="translate(-3.126 -3.126)"/>
  <path id="Trazado_47865" data-name="Trazado 47865" d="M0,0H22.989V22.989H0Z" fill="none"/>
</svg>
