<svg id="coin" xmlns="http://www.w3.org/2000/svg" width="19.822" height="19.822" viewBox="0 0 19.822 19.822">
  <path id="Trazado_48494" data-name="Trazado 48494" d="M11.085,8c5.017,0,9.085,2.218,9.085,4.955v3.3c0,2.738-4.068,4.955-9.085,4.955-4.927,0-8.94-2.139-9.081-4.811l0-.145v-3.3C2,10.218,6.068,8,11.085,8Zm0,9.911A12.49,12.49,0,0,1,3.652,15.8v.454c0,1.553,3.209,3.3,7.433,3.3,4.138,0,7.3-1.677,7.429-3.2l0-.1V15.8A12.519,12.519,0,0,1,11.085,17.911Zm0-8.259c-4.225,0-7.433,1.751-7.433,3.3s3.209,3.3,7.433,3.3,7.433-1.751,7.433-3.3S15.309,9.652,11.085,9.652Z" transform="translate(-1.174 -4.696)"/>
  <path id="Trazado_48495" data-name="Trazado 48495" d="M0,0H19.822V19.822H0Z" fill="none"/>
</svg>
