<svg xmlns="http://www.w3.org/2000/svg" width="13.902" height="12.358" viewBox="0 0 13.902 12.358">
  <path id="filter-edit-svgrepo-com" d="M8.562,4h.144a3.19,3.19,0,0,1,.814.066,1.931,1.931,0,0,1,1.365,1.365,3.191,3.191,0,0,1,.066.814c0,.024,0,.048,0,.072H17.13a.772.772,0,1,1,0,1.545H10.951c0,.024,0,.048,0,.072a3.191,3.191,0,0,1-.066.814A1.931,1.931,0,0,1,9.52,10.113a3.19,3.19,0,0,1-.814.066H8.562a3.191,3.191,0,0,1-.814-.066A1.931,1.931,0,0,1,6.383,8.748a3.19,3.19,0,0,1-.066-.814q0-.036,0-.072H4.772a.772.772,0,1,1,0-1.545H6.317q0-.036,0-.072a3.19,3.19,0,0,1,.066-.814A1.931,1.931,0,0,1,7.748,4.066,3.191,3.191,0,0,1,8.562,4ZM8.247,5.549a.6.6,0,0,0-.1.009.386.386,0,0,0-.273.273.644.644,0,0,0-.009.1c0,.087,0,.2,0,.387V7.862c0,.187,0,.3,0,.387a.593.593,0,0,0,.009.1.386.386,0,0,0,.273.273.6.6,0,0,0,.1.009c.087,0,.2,0,.387,0s.3,0,.387,0a.6.6,0,0,0,.1-.009.386.386,0,0,0,.273-.273.6.6,0,0,0,.009-.1c0-.087,0-.2,0-.387V6.317c0-.187,0-.3,0-.387a.6.6,0,0,0-.009-.1M8.247,5.549c.087,0,.2,0,.387,0Zm.387,0c.187,0,.3,0,.387,0Zm.387,0a.643.643,0,0,1,.1.009Zm.1.009h0ZM13.2,10.179h.144a3.19,3.19,0,0,1,.814.066,1.931,1.931,0,0,1,1.365,1.365,3.19,3.19,0,0,1,.066.814c0,.024,0,.048,0,.072H17.13a.772.772,0,1,1,0,1.545H15.585c0,.024,0,.048,0,.072a3.191,3.191,0,0,1-.066.814,1.931,1.931,0,0,1-1.365,1.365,3.191,3.191,0,0,1-.814.066H13.2a3.191,3.191,0,0,1-.814-.066,1.931,1.931,0,0,1-1.365-1.365,3.191,3.191,0,0,1-.066-.814c0-.024,0-.048,0-.072H4.772a.772.772,0,0,1,0-1.545h6.179c0-.024,0-.048,0-.072a3.19,3.19,0,0,1,.066-.814,1.931,1.931,0,0,1,1.365-1.365A3.19,3.19,0,0,1,13.2,10.179Zm-.315,1.549a.6.6,0,0,0-.1.009.386.386,0,0,0-.273.273.6.6,0,0,0-.009.1c0,.087,0,.2,0,.387v1.545c0,.187,0,.3,0,.387a.593.593,0,0,0,.009.1.386.386,0,0,0,.273.273.6.6,0,0,0,.1.009c.087,0,.2,0,.387,0s.3,0,.387,0a.6.6,0,0,0,.1-.009.386.386,0,0,0,.273-.273.593.593,0,0,0,.009-.1c0-.087,0-.2,0-.387V12.5c0-.187,0-.3,0-.387a.6.6,0,0,0-.009-.1.386.386,0,0,0-.273-.273.6.6,0,0,0-.1-.009c-.087,0-.2,0-.387,0S12.967,11.724,12.881,11.728Z" transform="translate(-4 -4)" fill="#0f1729" fill-rule="evenodd"/>
</svg>
