<svg xmlns="http://www.w3.org/2000/svg" width="37" height="37" viewBox="0 0 37 37">
  <g id="Grupo_12185" data-name="Grupo 12185" transform="translate(-377 -80)">
    <rect id="Rect치ngulo_18825" data-name="Rect치ngulo 18825" width="37" height="37" rx="10" transform="translate(377 80)" fill="#ffd954"/>
    <path id="Uni칩n_25" data-name="Uni칩n 25" d="M15.184,2.1a2.17,2.17,0,0,1,4.339,0,2.17,2.17,0,0,1-4.339,0Zm-7.592,0a2.169,2.169,0,0,1,4.337,0,2.169,2.169,0,0,1-4.337,0ZM0,2.1A2.14,2.14,0,0,1,2.168,0a2.141,2.141,0,0,1,2.17,2.1,2.141,2.141,0,0,1-2.17,2.106A2.14,2.14,0,0,1,0,2.1Z" transform="translate(397.211 89) rotate(90)" fill="#2c252b"/>
  </g>
</svg>
