<svg xmlns="http://www.w3.org/2000/svg" width="40" height="40" viewBox="0 0 40 40">
  <g id="Grupo_12180" data-name="Grupo 12180" transform="translate(-365 -698)">
    <g id="Grupo_11704" data-name="Grupo 11704" transform="translate(337 475)">
      <g id="Rectángulo_19692" data-name="Rectángulo 19692" transform="translate(30 225)" fill="#238aa8" stroke="#fff" stroke-width="2">
        <rect width="36" height="36" rx="18" stroke="none"/>
        <rect x="-1" y="-1" width="38" height="38" rx="19" fill="none"/>
      </g>
    </g>
    <path id="umbrella-beach_9240013" d="M18.537,17.734a3.5,3.5,0,0,1-1.173-.343,4.749,4.749,0,0,0-1.783-.463,4.749,4.749,0,0,0-1.783.463,3.505,3.505,0,0,1-1.173.343,3.505,3.505,0,0,1-1.173-.343,4.749,4.749,0,0,0-1.783-.463,4.749,4.749,0,0,0-1.783.463,5.632,5.632,0,0,1-.881.309l3.024-6.827,5.792,2.64a2.363,2.363,0,0,0,2.078-.051,2.389,2.389,0,0,0,1.257-1.679A9.776,9.776,0,0,0,13.849.874a9.641,9.641,0,0,0-11.76,3.1,2.5,2.5,0,0,0-.394,2.11,2.419,2.419,0,0,0,1.336,1.6L8.564,10.2,5.405,17.335a4.414,4.414,0,0,0-1.645-.407,4.749,4.749,0,0,0-1.783.463A3.5,3.5,0,0,1,.8,17.734a.806.806,0,0,0,0,1.612,4.749,4.749,0,0,0,1.783-.463A3.5,3.5,0,0,1,3.76,18.54a3.5,3.5,0,0,1,1.173.343,4.749,4.749,0,0,0,1.783.463A4.749,4.749,0,0,0,8.5,18.884a3.5,3.5,0,0,1,1.173-.343,3.5,3.5,0,0,1,1.173.343,4.749,4.749,0,0,0,1.783.463,4.749,4.749,0,0,0,1.783-.463,3.5,3.5,0,0,1,1.173-.343,3.505,3.505,0,0,1,1.173.343,4.749,4.749,0,0,0,1.783.463.806.806,0,1,0,0-1.612ZM3.254,5.672a.891.891,0,0,1,.139-.752,8.128,8.128,0,0,1,9.788-2.58,8.171,8.171,0,0,1,4.4,9.134.778.778,0,0,1-.413.553.759.759,0,0,1-.671.018L3.7,6.214a.811.811,0,0,1-.447-.542Z" transform="translate(375.001 707.984)" fill="#fff"/>
  </g>
</svg>
