<svg xmlns="http://www.w3.org/2000/svg" width="250.352" height="249.277" viewBox="0 0 250.352 249.277">
  <g id="Grupo_12179" data-name="Grupo 12179" transform="translate(-89.824 -190.149)">
    <g id="Grupo_12178" data-name="Grupo 12178">
      <path id="Trazado_47279" data-name="Trazado 47279" d="M105.6,157.064c-4.846,16.9-16.1,35.133-56.722,21.692S3.087,150.268,7.8,125.91s-19.712-44.682,0-66.989,50.4.751,65.486-26.783,41.138-43.417,65.962-22.621,70.2,104.554,32.126,116.394S110.446,140.166,105.6,157.064Z" transform="translate(254.067 439.426) rotate(-152)" fill="#ffca3c"/>
    </g>
    <g id="filled_outline" data-name="filled outline" transform="translate(142.387 234.789)">
      <g id="Grupo_11944" data-name="Grupo 11944" transform="translate(95.539 90.255)">
        <path id="Trazado_48163" data-name="Trazado 48163" d="M456.858,340.29,452,341.761l3.368,8.77a12.016,12.016,0,0,0,7.338,7.065,3.568,3.568,0,0,0,4.144-1.432l-.927-.384a12.018,12.018,0,0,1-7-7.932Z" transform="translate(-407.866 -315.347)" fill="#f07f35"/>
        <path id="Trazado_48164" data-name="Trazado 48164" d="M349.628,345.5l4.808,2.589,12.12-6.615,2.584-5.712,9.091-1.235-10.3-12.452-6.089,9.34a14.727,14.727,0,0,0-2.39,8.043l-5.754,3.205a2.616,2.616,0,0,0-3.917,1.853Z" transform="translate(-336.497 -302.649)" fill="#f07f35"/>
        <path id="Trazado_48165" data-name="Trazado 48165" d="M306.271,261.757s6.32-2.609,6.493-2.609,11.712,2.071,11.712,2.071l5.276-3.288,3.653,9.046-7.712,1.912-10.726-4.812-2.674,1.064a4.435,4.435,0,0,1-5.961-3.117Z" transform="translate(-306.271 -257.93)" fill="#f07f35"/>
      </g>
      <path id="Trazado_48166" data-name="Trazado 48166" d="M152.311,80.038l7.268,43.573H123.237L115.969,80Z" transform="translate(-78.063 -43.632)" fill="#00b377"/>
      <path id="Trazado_48167" data-name="Trazado 48167" d="M173.871,53.8l1.249,9.948a2.367,2.367,0,1,1-4.7.581l-1.315-10.775Z" transform="translate(-115.108 -25.193)" fill="#ffb3d0"/>
      <path id="Trazado_48168" data-name="Trazado 48168" d="M398.171,358.608l-6.171-2.6.117-.6a3.106,3.106,0,0,1,4.582-2.106l1.894-6.932-1.072-4.256a13.675,13.675,0,0,1,.68-8.7l5.815-13.647,9.328,12.538-8.018,10.16v4.286Z" transform="translate(-270.498 -210.791)" fill="#ffa54f"/>
      <path id="Trazado_48169" data-name="Trazado 48169" d="M389.5,220.391c-5.69-5.681-13.322-13.313-13.322-13.313l3.461-15.575,2.979,3.973a3.348,3.348,0,0,0,5.673-.512l-9.928-12.821a3.282,3.282,0,0,0-3.166-1.089l-6.506-5.654-1.315,1.289a3.158,3.158,0,0,0-.068,4.443l2.812,2.93-4.264-2.833a1.592,1.592,0,0,0-2.147.36l-.328.429,5.4,7.374-7.156,9.985a14.688,14.688,0,0,0,1.547,18.935l14.215,14.232a8.578,8.578,0,0,0,12.11-12.153Z" transform="translate(-247.408 -110.14)" fill="#ffa54f"/>
      <path id="Trazado_48170" data-name="Trazado 48170" d="M328.51,273.176h.569a4.46,4.46,0,0,0,4.46-4.46V268.6l11.776-9.758-3.789-9.2L328.51,267.629Z" transform="translate(-226.236 -161.897)" fill="#ffa54f"/>
      <path id="Trazado_48171" data-name="Trazado 48171" d="M84.309,224H47.967l3.473,27.287L8,258l4.1,22.458a.606.606,0,0,0,1.128.182l4.469-8.2,39.192-6.053a12.72,12.72,0,0,0,10.723-13.756L66.514,240.96h9.077l9.267,19.148L52.812,290.017,68.17,306.471a.606.606,0,0,0,1.048-.45l-.561-9.251,28.909-26.982a12.114,12.114,0,0,0,2.561-14.292Z" transform="translate(-2.793 -144.021)" fill="#2e65b8"/>
      <path id="Trazado_48172" data-name="Trazado 48172" d="M71,106.548l-1.9,5.164,6.163,21.569,4.21,1.393a1.661,1.661,0,0,1,1.108,1.272,1.778,1.778,0,0,1,.03.309,1.663,1.663,0,0,1-1.741,1.654l-2.317-.112,1.03,3.6a2.419,2.419,0,0,1-1.663,3l-6.99,2a2.423,2.423,0,0,1-3-1.666l-8.483-29.694a12.116,12.116,0,0,1,.273-7.5l1.769-4.821,6.16-16.787A9.085,9.085,0,0,1,74.2,79.97l6.56.009Z" transform="translate(-36.945 -43.611)" fill="#ffb3d0"/>
      <path id="Trazado_48173" data-name="Trazado 48173" d="M236.848,98.1l1.972,3.2,27.641-20.515a1.211,1.211,0,0,1,1.693.251l5.775,7.783a1.209,1.209,0,0,1-.248,1.693L243.387,113a9.085,9.085,0,0,1-13.153-2.532l-3.749-6.093L211.56,80.12h9.149a9.091,9.091,0,0,1,7.738,4.325Z" transform="translate(-144.705 -43.715)" fill="#ffb3d0"/>
      <path id="Trazado_48174" data-name="Trazado 48174" d="M86.533,79.979l-9.761,26.569-11.33-3.77-.173-.064,6.16-16.787a9.086,9.086,0,0,1,8.543-5.957Z" transform="translate(-42.719 -43.611)" fill="#00b377"/>
      <path id="Trazado_48175" data-name="Trazado 48175" d="M228.447,84.445l8.4,13.652-10.364,6.275L211.56,80.12h9.149A9.091,9.091,0,0,1,228.447,84.445Z" transform="translate(-144.705 -43.715)" fill="#00b377"/>
      <circle id="Elipse_565" data-name="Elipse 565" cx="7.658" cy="7.658" r="7.658" transform="translate(119.917 40.003)" fill="#339aef"/>
      <path id="Trazado_48176" data-name="Trazado 48176" d="M380.114,104.588a4.257,4.257,0,0,1-4.257,4.257h-3.012A3.348,3.348,0,0,1,368,105.851,1.851,1.851,0,0,1,369.851,104h10.263Z" transform="translate(-253.767 -60.363)" fill="#ff9ac0"/>
      <path id="Trazado_48177" data-name="Trazado 48177" d="M0,0H7.268V6.663A3.029,3.029,0,0,1,4.24,9.691,4.24,4.24,0,0,1,0,5.451Z" transform="translate(56.199 22.504) rotate(7.644)" fill="#ffb3d0"/>
      <path id="Trazado_48178" data-name="Trazado 48178" d="M176.959,21.135l-.563-.074a4.774,4.774,0,0,0-2.726.448,4.774,4.774,0,0,1-2.738.444A3.545,3.545,0,0,0,166.948,25l-.606,4.51,1.277.479a4.134,4.134,0,0,0,5.151-2.027l5.473.734a1.639,1.639,0,0,0,1.322-2.836l-.931-.848.2-1.41a2.176,2.176,0,0,0-1.872-2.462Z" transform="translate(-113.181 -2.514)" fill="#2e65b8"/>
      <circle id="Elipse_566" data-name="Elipse 566" cx="2.106" cy="2.106" r="2.106" transform="translate(53.143 25.167)" fill="#ffb3d0"/>
      <path id="Trazado_48179" data-name="Trazado 48179" d="M339.954,178.573A4.5,4.5,0,0,0,336.248,177l-6.095-5.3a1.211,1.211,0,0,0-1.642.049l-1.315,1.287a4.389,4.389,0,0,0-.43,5.754l-2.364-.717a1.211,1.211,0,0,0-1.329,1.875l4.882,6.667-5.464,7.629-.007.008-3.414,4.714-.154-.027c-8.529-1.518-8.576-1.518-8.75-1.518-.3,0-.416,0-6.955,2.7a1.211,1.211,0,0,0-.719,1.388l.061.273a5.646,5.646,0,0,0,7.588,3.967l2.2-.874,1.853.831-4.824,6.67a1.212,1.212,0,0,0-.23.71v5.547a1.211,1.211,0,0,0,1.211,1.211h.569a5.679,5.679,0,0,0,5.652-5.2l3.281-2.719a15.78,15.78,0,0,0,3.133,4.457l7.123,7.13-1.578,2.423a15.889,15.889,0,0,0-2.57,7.982l-4.61,2.571a3.826,3.826,0,0,0-5.062,3.026l-.151.981a1.211,1.211,0,0,0,.623,1.252l4.809,2.589a1.212,1.212,0,0,0,1.179-.017l7.274-4.192a1.207,1.207,0,0,0,.248-.189l3.268-3.242a14.717,14.717,0,0,0,.385,2.283l.994,3.95-1.472,5.379a4.331,4.331,0,0,0-4.943,3.441l-.115.6a1.211,1.211,0,0,0,.72,1.346l6.169,2.6a1.211,1.211,0,0,0,1.507-.49l4.94-8.177a16.6,16.6,0,0,0,2.386-8.158l5.564-7.052.312.814A13.182,13.182,0,0,0,358.059,241a4.765,4.765,0,0,0,5.553-1.919,1.211,1.211,0,0,0-.555-1.78l-.925-.381a10.732,10.732,0,0,1-6.29-7.135l-2.047-7.475a9.7,9.7,0,0,0-2.772-5.562c-4.848-4.84-11.106-11.1-12.852-12.841l2.746-12.356,1.4,1.868a4.559,4.559,0,0,0,7.723-.7,1.211,1.211,0,0,0-.114-1.268Zm-27.09,23.881a1.211,1.211,0,0,0-.943-.02l-2.676,1.063a3.224,3.224,0,0,1-4.079-1.562c2.2-.9,4.393-1.793,5.107-2.062.984.164,4.529.793,7.22,1.272l-1.847,2.555Zm15.811,35.652-6.553,3.776-3.462-1.864.021-.137a1.4,1.4,0,0,1,1.393-1.192,1.379,1.379,0,0,1,.711.2,1.211,1.211,0,0,0,1.208.016l5.751-3.207a1.212,1.212,0,0,0,.622-1.059,13.477,13.477,0,0,1,2.193-7.379l1.3-1.993,3.235,3.238-.43,1.008a14.864,14.864,0,0,0-1.026,3.676Zm31.61.633a2.362,2.362,0,0,1-1.441-.03,10.765,10.765,0,0,1-6.6-6.352l-.828-2.16.268-.341.182-.23c.019-.024.032-.05.049-.075a9.732,9.732,0,0,0,.932-1.518l.655,2.395A13.131,13.131,0,0,0,360.285,238.738Zm-24.3-33.59s7.632,7.632,13.322,13.313a7.359,7.359,0,0,1,.627,9.695c-.032.044-.065.086-.1.129l-7.888,10a1.211,1.211,0,0,0-.26.75,14.18,14.18,0,0,1-2.043,7.333l-4.4,7.28-4.263-1.794a1.9,1.9,0,0,1,2.688-.93,1.211,1.211,0,0,0,1.767-.734l1.9-6.929a1.208,1.208,0,0,0,.006-.616l-1.072-4.258a12.535,12.535,0,0,1,.618-7.926l.751-1.76a1.211,1.211,0,0,0-.257-1.333l-12.686-12.7a13.353,13.353,0,0,1-2.909-4.351l6.138-5.086a1.211,1.211,0,0,0-1.546-1.866L314.6,213.126a1.211,1.211,0,0,0-.438.933v.112a3.254,3.254,0,0,1-2.607,3.185v-3.879L324.278,195.9h0l6.155-8.593a1.211,1.211,0,0,0-.008-1.421l-3.255-4.446,3.265.99a1.211,1.211,0,0,0,1.226-2L328.85,177.5a1.954,1.954,0,0,1,.043-2.739l.515-.505,5.661,4.921a1.208,1.208,0,0,0,1.039.273,2.077,2.077,0,0,1,2,.688l2.269,2.669-4.713,21.219a1.212,1.212,0,0,0,.326,1.119Zm9.969-12.331a2.113,2.113,0,0,1-1.7-.854l-2.646-3.528.692-3.114,5.164,6.887a2.109,2.109,0,0,1-1.508.609Z" transform="translate(-208.076 -107.353)"/>
      <path id="Trazado_48180" data-name="Trazado 48180" d="M8.417,138.338a1.211,1.211,0,0,0,2.255.363l5-9.182,38.6-5.962a13.949,13.949,0,0,0,11.744-15.066L65.05,98.15h6.987l8.547,17.66-31.393,29.3a1.211,1.211,0,0,0-.061,1.712l16.505,17.686a1.211,1.211,0,0,0,2.095-.9L67.1,153.247,95.6,126.654a13.4,13.4,0,0,0,2.817-15.722L82.68,79.6,79.207,58.793,84.5,67.386A10.3,10.3,0,0,0,99.4,70.256l22.224-16.494a8.586,8.586,0,1,0,4.488-14.878L124.421,36.6a2.425,2.425,0,0,0-3.389-.5L94.452,55.826,84.772,40.1A10.365,10.365,0,0,0,76,35.194l-15.2-.017-.2-1.6a4.255,4.255,0,0,0,1.082-.494,4.21,4.21,0,0,0,1.86-2.66l.644-2.91.766.17a2.85,2.85,0,0,0,2.708-4.72l-.421-.454.176-.766a3.392,3.392,0,0,0-2.582-4.064l-.556-.121a5.972,5.972,0,0,0-3.452.271,3.6,3.6,0,0,1-2.062.161A4.749,4.749,0,0,0,53.1,21.6l-.983,4.444a3.3,3.3,0,0,0,.735,2.9l.76,6.232-16.354-.019h-.016a10.331,10.331,0,0,0-9.665,6.75L19.644,63.509a13.243,13.243,0,0,0-.3,8.248l8.483,29.694a3.629,3.629,0,0,0,4.493,2.5l6.989-2a3.631,3.631,0,0,0,2.5-4.493l-.566-1.979.63.03a2.872,2.872,0,0,0,1.042-5.594l-3.6-1.192L33.43,68.149l5.879-16,4.664,28,3.322,26.1L5.021,112.778a1.211,1.211,0,0,0-1.007,1.415Zm125.07-90.976a6.141,6.141,0,0,1-11.823,2.332h.424a5.475,5.475,0,0,0,5.47-5.468v-.589a1.211,1.211,0,0,0-1.211-1.211h-2.659a6.139,6.139,0,0,1,9.8,4.933Zm-39.6,11.417a1.211,1.211,0,0,0,.951-.217l27.64-20.514,1.179,1.589a8.593,8.593,0,0,0-3.312,2.789h-1.984a1.211,1.211,0,1,0,0,2.423h6.712a3.051,3.051,0,0,1-2.982,2.423h-3.009a1.209,1.209,0,0,0-.542.128,2.147,2.147,0,0,1-2.586-.527,1.212,1.212,0,1,0-1.839,1.58,4.533,4.533,0,0,0,5.007,1.324,8.563,8.563,0,0,0,.945,2.13L97.958,68.31a7.874,7.874,0,0,1-11.4-2.194l-3.11-5.053,8.29-5.022,1.342,2.181a1.211,1.211,0,0,0,.8.555ZM55.462,22.12a2.326,2.326,0,0,1,2.78-1.77,6.021,6.021,0,0,0,3.471-.27,3.554,3.554,0,0,1,2.053-.16l.551.121a.969.969,0,0,1,.74,1.16l-.318,1.387a1.211,1.211,0,0,0,.293,1.095l.854.92a.429.429,0,0,1,.116.291.393.393,0,0,1-.011.1.419.419,0,0,1-.185.265.427.427,0,0,1-.323.056l-5.391-1.193a1.208,1.208,0,0,0-1.3.554,2.909,2.909,0,0,1-.476.594,3.307,3.307,0,0,0-2.251-1.747,3.347,3.347,0,0,0-.9-.075Zm-.985,4.444a.894.894,0,0,1,1.753.349A1.211,1.211,0,0,0,57.749,28.3a5.3,5.3,0,0,0,2.59-1.64l1.488.329L61.183,29.9a1.815,1.815,0,0,1-1.832,1.423h0a1.8,1.8,0,0,1-.333-.041,1.208,1.208,0,0,0-.859,2.23l.65,5.195a1.155,1.155,0,0,1-2.293.283L55.2,28.222c0-.035-.01-.07-.017-.105a1.209,1.209,0,0,0-.485-.745A.891.891,0,0,1,54.478,26.564ZM37.154,90a1.211,1.211,0,0,0,.784.818l4.207,1.393a.447.447,0,0,1,.3.345.441.441,0,0,1-.1.377.454.454,0,0,1-.359.151l-2.317-.112a1.211,1.211,0,0,0-1.224,1.543l1.03,3.6a1.208,1.208,0,0,1-.831,1.5l-6.988,2a1.211,1.211,0,0,1-1.5-.833L21.673,71.091a10.833,10.833,0,0,1,.245-6.748l1.363-3.713,9.2,3.064-1.467,3.989a1.211,1.211,0,0,0-.028.751Zm2.707-43.775a1.215,1.215,0,0,0-1.25.787l-5.29,14.4-9.205-3.062,5.731-15.621a7.9,7.9,0,0,1,7.392-5.163h.012l16.652.02.206,1.688a3.578,3.578,0,0,0,3.551,3.146,3.746,3.746,0,0,0,.449-.028,3.583,3.583,0,0,0,3.1-4l-.1-.8L76,37.615a7.928,7.928,0,0,1,6.7,3.75L90.47,53.979,82.18,59l-4.155-6.751a1.211,1.211,0,0,0-2.227.834l4.286,25.684H46.2L40.944,47.236a1.211,1.211,0,0,0-1.082-1.007Zm8.969,62.234a1.211,1.211,0,0,0,1.017-1.349l-3.3-25.924H80.768l15.481,30.83a10.963,10.963,0,0,1-2.3,12.863L65.891,151.067l-6.976-6.976A1.212,1.212,0,1,0,57.2,145.8l7.479,7.479.431,7.111L51.73,146.057l31.16-29.082a1.211,1.211,0,0,0,.264-1.413L73.887,96.413a1.211,1.211,0,0,0-1.09-.684H63.719a1.211,1.211,0,0,0-1.206,1.324l1.09,11.665a11.523,11.523,0,0,1-9.7,12.447l-38.034,5.875-1.84-9.721a1.211,1.211,0,1,0-2.38.451l1.98,10.442-3.442,6.315L6.621,114.983Z" transform="translate(0 0)"/>
    </g>
  </g>
</svg>
