<svg xmlns="http://www.w3.org/2000/svg" width="40" height="40" viewBox="0 0 40 40">
  <g id="Grupo_11703" data-name="Grupo 11703" transform="translate(-28 -223)">
    <g id="Rectángulo_19692" data-name="Rectángulo 19692" transform="translate(30 225)" fill="#f09402" stroke="#fff" stroke-width="2">
      <rect width="36" height="36" rx="18" stroke="none"/>
      <rect x="-1" y="-1" width="38" height="38" rx="19" fill="none"/>
    </g>
    <path id="building_3914425" d="M5.653,11.306a.808.808,0,0,1-.808.808H4.038a.808.808,0,1,1,0-1.615h.808A.808.808,0,0,1,5.653,11.306Zm3.23-.808H8.076a.808.808,0,1,0,0,1.615h.808a.808.808,0,1,0,0-1.615Zm-4.038,3.23H4.038a.808.808,0,1,0,0,1.615h.808a.808.808,0,1,0,0-1.615Zm4.038,0H8.076a.808.808,0,1,0,0,1.615h.808a.808.808,0,1,0,0-1.615ZM4.846,4.038H4.038a.808.808,0,1,0,0,1.615h.808a.808.808,0,1,0,0-1.615Zm4.038,0H8.076a.808.808,0,1,0,0,1.615h.808a.808.808,0,1,0,0-1.615ZM4.846,7.268H4.038a.808.808,0,1,0,0,1.615h.808a.808.808,0,1,0,0-1.615Zm4.038,0H8.076a.808.808,0,1,0,0,1.615h.808a.808.808,0,1,0,0-1.615Zm10.5.808v7.268a4.043,4.043,0,0,1-4.038,4.038H4.038A4.043,4.043,0,0,1,0,15.344V4.038A4.043,4.043,0,0,1,4.038,0H8.884a4.043,4.043,0,0,1,4.038,4.038h2.423a4.043,4.043,0,0,1,4.038,4.038ZM4.038,17.767h7.268V4.038A2.423,2.423,0,0,0,8.884,1.615H4.038A2.423,2.423,0,0,0,1.615,4.038V15.344a2.423,2.423,0,0,0,2.423,2.423ZM17.767,8.076a2.423,2.423,0,0,0-2.423-2.423H12.922V17.767h2.423a2.423,2.423,0,0,0,2.423-2.423ZM15.344,10.5a.808.808,0,1,0,.808.808A.808.808,0,0,0,15.344,10.5Zm0,3.23a.808.808,0,1,0,.808.808A.808.808,0,0,0,15.344,13.729Zm0-6.461a.808.808,0,1,0,.808.808A.808.808,0,0,0,15.344,7.268Z" transform="translate(38.309 232.981)" fill="#fff"/>
  </g>
</svg>
