<svg xmlns="http://www.w3.org/2000/svg" width="40" height="40" viewBox="0 0 40 40">
  <g id="Grupo_11702" data-name="Grupo 11702" transform="translate(-28 -223)">
    <g id="Rectángulo_19692" data-name="Rectángulo 19692" transform="translate(30 225)" fill="#259511" stroke="#fff" stroke-width="2">
      <rect width="36" height="36" rx="18" stroke="none"/>
      <rect x="-1" y="-1" width="38" height="38" rx="19" fill="none"/>
    </g>
    <path id="tree-alt_12088685" d="M16.913,13.787c-.017-.023-1.24-1.445-1.24-1.445a2.126,2.126,0,0,0,.49-2.918c-.02-.029-1.5-1.666-1.5-1.666a1.97,1.97,0,0,0,.863-.855,1.932,1.932,0,0,0-.14-2.012C15.366,4.869,11.668.683,11.668.683a2.079,2.079,0,0,0-3,0s-3.7,4.186-3.715,4.209A1.934,1.934,0,0,0,4.809,6.9a1.97,1.97,0,0,0,.863.855S4.191,9.395,4.17,9.424a2.126,2.126,0,0,0,.49,2.918s-1.224,1.422-1.24,1.445a2.39,2.39,0,0,0,1.968,3.745h3.98v.8a.8.8,0,0,0,1.593,0v-.8h3.98a2.39,2.39,0,0,0,1.968-3.745ZM15.65,15.513a.778.778,0,0,1-.7.426h-3.98V8.77a.8.8,0,0,0-1.593,0v7.169H5.391a.8.8,0,0,1-.675-1.218l1.935-2.244a.8.8,0,0,0-.6-1.317H5.923a.531.531,0,0,1-.46-.8L7.869,7.713a.8.8,0,0,0-.59-1.332H6.587a.389.389,0,0,1-.359-.21.332.332,0,0,1,.009-.333l3.625-4.1a.419.419,0,0,1,.617,0l3.625,4.1a.334.334,0,0,1,.009.333.389.389,0,0,1-.359.21h-.691a.8.8,0,0,0-.59,1.332l2.406,2.651a.531.531,0,0,1-.46.8h-.125a.8.8,0,0,0-.6,1.317l1.935,2.244a.778.778,0,0,1,.029.792Z" transform="translate(37.327 233.089)" fill="#fff"/>
  </g>
</svg>
