<svg xmlns="http://www.w3.org/2000/svg" width="122" height="123" viewBox="0 0 122 123">
  <g id="Grupo_12182" data-name="Grupo 12182" transform="translate(-154 -195)">
    <g id="Rect치ngulo_19698" data-name="Rect치ngulo 19698" transform="translate(154 195)" fill="none" stroke="#919191" stroke-width="1.5" stroke-dasharray="10">
      <rect width="122" height="123" rx="10" stroke="none"/>
      <rect x="0.75" y="0.75" width="120.5" height="121.5" rx="9.25" fill="none"/>
    </g>
    <g id="Grupo_11712" data-name="Grupo 11712" transform="translate(190.878 232.188)">
      <path id="Trazado_47832" data-name="Trazado 47832" d="M9.517,20.244l3.517-3.517L22.706,26.4l6.155-6.155,5.276,5.276v-16H9.517Zm0,4.977v8.916h5.451l5.249-5.249L13.034,21.7Zm10.428,8.916H34.137V30.5l-5.276-5.276ZM7.759,6H35.9a1.764,1.764,0,0,1,1.759,1.759V35.9A1.764,1.764,0,0,1,35.9,37.654H7.759A1.764,1.764,0,0,1,6,35.9V7.759A1.764,1.764,0,0,1,7.759,6ZM27.982,18.31a2.638,2.638,0,1,1,2.638-2.638A2.634,2.634,0,0,1,27.982,18.31Z" transform="translate(-6 -6)" fill="#b8b8b8"/>
      <g id="Grupo_11710" data-name="Grupo 11710" transform="translate(15.827 15.827)">
        <rect id="Rect치ngulo_19654" data-name="Rect치ngulo 19654" width="32.162" height="32.162" rx="16.081" fill="#ffd954"/>
        <path id="Trazado_47647" data-name="Trazado 47647" d="M15.462,15.462V10h1.821v5.462h5.462v1.821H17.282v5.462H15.462V17.282H10V15.462Z" transform="translate(0.051 -0.955)"/>
      </g>
    </g>
  </g>
</svg>
