<svg xmlns="http://www.w3.org/2000/svg" xmlns:xlink="http://www.w3.org/1999/xlink" width="68" height="68" viewBox="0 0 68 68">
  <defs>
    <filter id="Elipse_307" x="0" y="0" width="68" height="68" filterUnits="userSpaceOnUse">
      <feOffset dy="3" input="SourceAlpha"/>
      <feGaussianBlur stdDeviation="3" result="blur"/>
      <feFlood flood-opacity="0.388"/>
      <feComposite operator="in" in2="blur"/>
      <feComposite in="SourceGraphic"/>
    </filter>
    <clipPath id="clip-path">
      <path id="Trazado_47351" data-name="Trazado 47351" d="M278,52h28.746V80.121H278Zm0,0" transform="translate(0 0)" fill="#fff"/>
    </clipPath>
    <clipPath id="clip-path-2">
      <path id="Trazado_47350" data-name="Trazado 47350" d="M278.587,48.742l28.36,6.33L301.028,81.6l-28.36-6.327Zm0,0" transform="translate(-272.668 -48.742)" fill="#fff"/>
    </clipPath>
  </defs>
  <g id="Grupo_12186" data-name="Grupo 12186" transform="translate(-247.013 -1157.614)">
    <g transform="matrix(1, 0, 0, 1, 247.01, 1157.61)" filter="url(#Elipse_307)">
      <circle id="Elipse_307-2" data-name="Elipse 307" cx="25" cy="25" r="25" transform="translate(9 6)" fill="#ffca3c"/>
    </g>
    <g id="Grupo_11391" data-name="Grupo 11391" transform="translate(-11.36 1122.554)" clip-path="url(#clip-path)">
      <g id="Grupo_11390" data-name="Grupo 11390" transform="translate(274.668 49.964)" clip-path="url(#clip-path-2)">
        <g id="Grupo_11389" data-name="Grupo 11389" clip-path="url(#clip-path-2)">
          <g id="Grupo_11388" data-name="Grupo 11388" clip-path="url(#clip-path-2)">
            <path id="Trazado_47347" data-name="Trazado 47347" d="M286.746,79.125c.076-.078-.3-.215-1.018-.376a4.045,4.045,0,0,1-1.5-.557,2,2,0,0,0-.613-.361c-.139-.029-.237-.12-.22-.2s-.1-.171-.259-.207a.424.424,0,0,1-.327-.3.323.323,0,0,0-.2-.269.708.708,0,0,1-.31-.386,4.865,4.865,0,0,0-.281-.574.651.651,0,0,1-.1-.386c.02-.088-.027-.139-.107-.112s-.125-.215-.107-.535-.027-.6-.1-.618a4.729,4.729,0,0,1,.471-2.192,1.115,1.115,0,0,0,.332-.476,1.447,1.447,0,0,1,.508-.6,1.478,1.478,0,0,0,.491-.469c.1-.164.22-.254.273-.2s.181-.056.276-.247c.154-.3.434-.508,1.316-.962a.641.641,0,0,0,.273-.388c.034-.154.122-.266.193-.249s.259-.344.417-.8.349-.815.42-.8.149-.063.173-.173.193-.193.374-.178a.8.8,0,0,0,.588-.288c.144-.173.247-.254.232-.181s.066.076.183,0a.709.709,0,0,1,.466-.076c.142.032.276-.024.3-.124s.178-.164.344-.139a1.392,1.392,0,0,0,.749-.237,1.218,1.218,0,0,1,.857-.188c.227.049.425.027.442-.051s.256-.093.532-.029.488.176.471.254.256.205.613.286c.4.088.63.207.605.308s.012.134.073.1c.161-.1,1.181.808,1.487,1.325a1.229,1.229,0,0,0,.422.483c.088.02.107.088.049.149s.073.2.3.3.4.251.378.33c-.039.176.151.476.586.918.183.188.322.4.305.478a.839.839,0,0,0,.442.666c.085.02.124.161.09.317s0,.3.078.315.144.2.149.408.066.386.129.4.132.176.149.361a1.511,1.511,0,0,0,.183.574.7.7,0,0,1,.107.439c-.024.112.02.217.1.234s.107.193.063.388-.017.366.059.383.129.264.12.549.032.527.093.542.1.259.1.542.044.532.12.549.051.413-.054.881-.251.837-.332.82-.173.1-.208.256a.43.43,0,0,1-.31.322c-.188.029-.21.073-.09.188.1.1-.039.144-.393.132-.3-.01-.561.037-.576.107s-.127.1-.247.076a.36.36,0,0,0-.349.146.337.337,0,0,1-.317.151.266.266,0,0,0-.271.1,1.741,1.741,0,0,1-.923.037,1.831,1.831,0,0,0-.864.01,8.388,8.388,0,0,1-1.909-.2,7.41,7.41,0,0,0-1.911-.19c-.015.068-.381.044-.815-.051s-.8-.112-.818-.034-.464.046-1.042-.083C287,79.33,286.67,79.2,286.746,79.125Zm4.972-13.738a.306.306,0,0,0-.276-.051c-.059.037.017.09.171.117S291.823,65.458,291.718,65.387Zm-11.756,3.063a3.29,3.29,0,0,1-.571-.657.944.944,0,0,0-.32-.361c-.068-.015-.127-.2-.132-.4s-.076-.391-.151-.408-.1-.193-.061-.391a.5.5,0,0,0-.117-.488.391.391,0,0,1-.137-.391.449.449,0,0,0-.056-.369,2.02,2.02,0,0,1-.046-.876,1.856,1.856,0,0,0-.076-.9,4.521,4.521,0,0,1,.234-1.809l.373-1.672.537-.059c.3-.032.476-.081.4-.107s.1-.076.4-.112c.552-.066,1.3.232,1.242.5-.015.068.1.156.259.19s.271.129.254.207a.155.155,0,0,0,.122.176,3.046,3.046,0,0,1,.657.815,3.411,3.411,0,0,0,.632.813c.071.015.132.2.139.4s.059.386.12.4.093.29.073.613.029.6.1.62.144.2.149.405.068.388.139.4.1.156.063.312,0,.3.081.317.039.5-.107,1.157a3.155,3.155,0,0,1-.415,1.184.5.5,0,0,0-.227.339c-.034.156-.117.229-.186.164s-.146-.017-.176.1a.387.387,0,0,1-.32.261.838.838,0,0,0-.393.151,2.847,2.847,0,0,1-1.118-.044A2.561,2.561,0,0,1,279.962,68.451Zm20.261,4.089a.67.67,0,0,0-.352-.378.691.691,0,0,1-.349-.5,1.144,1.144,0,0,0-.1-.432,2.279,2.279,0,0,1-.081-1.738c.144-.642.154-.913.029-.869s-.117-.01.044-.2a2.14,2.14,0,0,0,.337-.764.956.956,0,0,1,.454-.686.953.953,0,0,0,.422-.539c.071-.312.491-.9.43-.608s.874-.53.94-.825c.046-.21.159-.315.3-.283a1.549,1.549,0,0,0,.7-.144c.769-.32,3.085.312,2.973.81a.177.177,0,0,0,.159.188c.2.046.4.691.317,1.047-.024.112.02.22.1.237a3.667,3.667,0,0,1-.19,1.523,4.751,4.751,0,0,1-.456,1.462c-.068-.017-.225.222-.347.527a1.956,1.956,0,0,1-.654.83,1.2,1.2,0,0,0-.481.478c-.024.112-.11.19-.188.173s-.166.066-.193.186a.346.346,0,0,1-.266.249.569.569,0,0,0-.352.288.736.736,0,0,1-.5.317c-.215.034-.278.085-.154.124.591.188-.539.159-1.462-.039C300.525,72.813,300.247,72.7,300.223,72.539ZM278.3,60.857c.044-.2.1-.269.112-.161a.563.563,0,0,1-.078.354C278.268,61.137,278.253,61.052,278.3,60.857Zm9.064,1.916c.073-.073-.039-.2-.261-.3-.444-.2-1.233-1.3-1.159-1.623.027-.117-.012-.227-.088-.244s-.112-.327-.088-.688-.02-.637-.1-.61-.1-.149-.046-.393.032-.417-.063-.386-.124-.139-.068-.415c.3-1.477.674-3.676.688-4.028.01-.222.081-.391.156-.373s.183-.164.237-.4.149-.383.22-.315.146.02.173-.1a.225.225,0,0,1,.266-.173.228.228,0,0,0,.264-.181c.039-.173.134-.188.391-.061s.349.112.386-.046c.054-.244.64-.166.986.134a3.2,3.2,0,0,0,.737.4c.283.112.505.261.488.33a3.139,3.139,0,0,0,.774,1.221c.061.012.1.283.078.6a1.324,1.324,0,0,0,.063.647,2.266,2.266,0,0,1,.259.693c.142.542.1.886-.308,2.663a8.4,8.4,0,0,1-.632,2.1,1.109,1.109,0,0,0-.356.493c-.215.491-.727.928-1.013.862-.107-.022-.171.02-.144.093s-.271.139-.662.142-.842.024-1.006.046C287.341,62.885,287.28,62.856,287.361,62.773Zm8.234.6c.017-.078-.081-.168-.217-.2a1.3,1.3,0,0,1-.676-1.184c.039-.168,0-.283-.093-.251-.107.034,0-.686.308-2.058a14.129,14.129,0,0,0,.4-2.234,2.2,2.2,0,0,1,.127-.852c.212-.762.837-1.56,1.162-1.489.1.022.3-.11.437-.293s.283-.29.317-.237.308.034.6-.049c.581-.159,1.8.078,1.909.371a1.672,1.672,0,0,0,.757.4c.381.127.7.312.713.417a1.276,1.276,0,0,0,.239.478.741.741,0,0,1,.178.456.276.276,0,0,0,.125.269,11.644,11.644,0,0,1-.889,4.055.983.983,0,0,0-.376.432c-.1.2-.237.354-.3.339s-.2.156-.305.381-.249.391-.322.373-.154.071-.181.19a1.628,1.628,0,0,1-1.164.7c-.11-.027-.178.02-.151.1s-.183.134-.471.124-.532.044-.549.117-.386.056-.818-.039S295.577,63.454,295.594,63.376Zm3.437-9.156a.3.3,0,0,1,.276.051c.1.071.063.1-.1.066C299.051,54.31,298.973,54.256,299.031,54.22Zm0,0" transform="translate(-274.765 -50.072)" fill="#fff"/>
          </g>
        </g>
      </g>
    </g>
  </g>
</svg>
