<svg xmlns="http://www.w3.org/2000/svg" width="13.083" height="13.06" viewBox="0 0 13.083 13.06">
  <path id="gym_3914460" d="M12.5,3.743l-1.189-1.19.516-.516a.545.545,0,1,0-.771-.771l-.516.516L9.354.593a2.017,2.017,0,0,0-2.782,0,1.967,1.967,0,0,0,0,2.783L7.761,4.565,4.549,7.778,3.359,6.588a2.017,2.017,0,0,0-2.782,0,1.967,1.967,0,0,0,0,2.783L1.766,10.56l-.516.516a.545.545,0,1,0,.771.771l.516-.516,1.19,1.189A1.967,1.967,0,0,0,6.508,9.738L5.319,8.549,8.535,5.336,9.724,6.525a1.967,1.967,0,0,0,2.782-2.782ZM6,11.129a.872.872,0,0,1-.257.62.9.9,0,0,1-1.241,0L1.347,8.6A.878.878,0,1,1,2.588,7.359l3.15,3.15A.872.872,0,0,1,6,11.129Zm5.738-5.375a.9.9,0,0,1-1.241,0L7.342,2.6A.878.878,0,1,1,8.583,1.364l3.15,3.15a.877.877,0,0,1,0,1.241Z" transform="translate(0 -0.037)"/>
</svg>
