<svg xmlns="http://www.w3.org/2000/svg" width="12.232" height="12.235" viewBox="0 0 12.232 12.235">
  <path id="house-chimney-heart_12442197" d="M11.213,2.921v-1.9a.51.51,0,1,0-1.019,0V2.224L7.542.434a2.539,2.539,0,0,0-2.851,0L1.123,2.841A2.544,2.544,0,0,0,0,4.954V9.682A2.551,2.551,0,0,0,2.548,12.23H9.684a2.551,2.551,0,0,0,2.548-2.548V4.954a2.543,2.543,0,0,0-1.019-2.033Zm0,6.761a1.531,1.531,0,0,1-1.529,1.529H2.548A1.531,1.531,0,0,1,1.019,9.682V4.954a1.525,1.525,0,0,1,.674-1.267L5.261,1.279a1.52,1.52,0,0,1,1.711,0L10.54,3.687a1.526,1.526,0,0,1,.673,1.267V9.682ZM7.244,4.546a1.724,1.724,0,0,0-1.147.4,1.71,1.71,0,0,0-2.8,1.377c0,1.124,1.157,2.289,2.129,3.069a1.085,1.085,0,0,0,1.349,0C7.743,8.606,8.9,7.441,8.9,6.317A1.719,1.719,0,0,0,7.244,4.545ZM6.134,8.591a.06.06,0,0,1-.073,0C4.982,7.726,4.313,6.854,4.313,6.317a.7.7,0,0,1,.637-.752c.291,0,.637.1.637.549a.51.51,0,1,0,1.019,0c0-.454.347-.549.637-.549a.7.7,0,0,1,.637.752c0,.537-.669,1.409-1.747,2.274Z" transform="translate(0 0.005)" fill="#100f0f"/>
</svg>
