<svg xmlns="http://www.w3.org/2000/svg" xmlns:xlink="http://www.w3.org/1999/xlink" width="156.279" height="95.599" viewBox="0 0 156.279 95.599">
  <defs>
    <clipPath id="clip-path">
      <path id="Trazado_47103" data-name="Trazado 47103" d="M174.281,161.832H202.73v28.449H174.281Zm0,0" transform="translate(-174.281 -161.832)"/>
    </clipPath>
    <clipPath id="clip-path-2">
      <path id="Trazado_47102" data-name="Trazado 47102" d="M188.506,161.832a14.224,14.224,0,1,0,14.224,14.224A14.225,14.225,0,0,0,188.506,161.832Zm0,0" transform="translate(-174.281 -161.832)"/>
    </clipPath>
    <clipPath id="clip-path-3">
      <path id="Trazado_47119" data-name="Trazado 47119" d="M149.527,156.8H189.8v40.268H149.527Zm0,0" transform="translate(-149.527 -156.797)"/>
    </clipPath>
    <clipPath id="clip-path-4">
      <path id="Trazado_47118" data-name="Trazado 47118" d="M169.661,156.8A20.134,20.134,0,1,0,189.8,176.931,20.134,20.134,0,0,0,169.661,156.8Zm0,0" transform="translate(-149.527 -156.797)"/>
    </clipPath>
  </defs>
  <g id="imagotipo" transform="translate(-3033.923 428.703)">
    <g id="Grupo_11072" data-name="Grupo 11072" transform="translate(3103.341 -425.401)" clip-path="url(#clip-path)">
      <g id="Grupo_11071" data-name="Grupo 11071" transform="translate(0)" clip-path="url(#clip-path-2)">
        <path id="Trazado_47101" data-name="Trazado 47101" d="M174.281,161.832H202.73v28.449H174.281Zm0,0" transform="translate(-174.281 -161.832)"/>
      </g>
    </g>
    <path id="Trazado_47104" data-name="Trazado 47104" d="M159.918,199.516a2.485,2.485,0,0,1,.182.474c0,.01.01.02.01.031C160.059,199.567,159.928,199.416,159.918,199.516Zm0,0" transform="translate(2934.004 -600.196)"/>
    <path id="Trazado_47105" data-name="Trazado 47105" d="M158.5,194.414a.332.332,0,0,0,.01.1,2.6,2.6,0,0,0,.051.282c0,.021.01.041.01.061C158.624,195.039,158.655,195.029,158.5,194.414Zm0,0" transform="translate(2934.49 -598.449)"/>
    <path id="Trazado_47106" data-name="Trazado 47106" d="M195.838,181.55a10.241,10.241,0,0,0-8.609-4.385,20.831,20.831,0,0,0-8.922,2.572,28.532,28.532,0,0,0-7.288,5.282c-.113.11-.223.233-.343.343a18.583,18.583,0,0,0-2.915-4.1c-3.617-3.932-9.365-6.2-14.678-5.051-5.817,1.25-9.032,6.957-8.479,12.623.535,5.423,3.046,10.241,5.838,14.849,2.39,3.922,19.025,27.824,24.588,17.5a35.366,35.366,0,0,1,1.957-3.215c.371-.546.756-1.089,1.148-1.614.192-.261.384-.564.6-.807-.12.161-.241.313-.361.474.141-.182.282-.361.423-.533,1.734-2.167,3.578-4.234,5.474-6.271,3.691-3.963,8.025-7.6,11.02-12.16C198.238,192.58,199.125,186.117,195.838,181.55Zm-8.115,4.175c-.079-.01-.172-.02-.3-.041A.771.771,0,0,1,187.723,185.726Zm-1.007.018c-.051.01-.092.01-.154.02C186.563,185.754,186.624,185.754,186.716,185.743Zm-26.494-.674c-.113-.041-.243-.092-.264-.092A.738.738,0,0,1,160.222,185.07Zm-5.93.049c-.018.02-.038.031-.059.051v-.01c-.01.01-.01.021-.02.021a.511.511,0,0,0-.082.072A.494.494,0,0,1,154.292,185.118Zm0,0" transform="translate(2939.296 -592.079)"/>
    <path id="Trazado_47107" data-name="Trazado 47107" d="M212.321,192.685a2.519,2.519,0,0,1-.192-.3,1.018,1.018,0,0,0,.192.313Zm0,0" transform="translate(2916.03 -597.75)"/>
    <path id="Trazado_47108" data-name="Trazado 47108" d="M183.931,228.521c-.717,8.953,2.731,17.38,8.287,24.258,6.048,7.49,14.647,11.622,24.125,12.662a37.732,37.732,0,0,0,14.163-1.563,41.972,41.972,0,0,0,13.1-6.383,49.672,49.672,0,0,0,17.823-24.4,55.16,55.16,0,0,0,.594-34.066,4.359,4.359,0,0,0-5.282-2.992c-2.431.786-3.358,2.892-2.995,5.282.041.272.082.543.12.817-.11-.817-.021-.113,0,.049.061.535.123,1.078.172,1.614.11,1.219.233,2.439.343,3.671a57.618,57.618,0,0,1,.213,6.583c-.031,1.1-.092,2.2-.172,3.286-.041.543-.082,1.089-.141,1.642-.031.272-.062.546-.092.817-.02.192-.11,1.552-.031.3a31.6,31.6,0,0,1-1.329,6.4c-.282,1.048-.6,2.088-.958,3.125-.182.515-.364,1.03-.553,1.532-.1.254-.2.5-.295.758-.492,1.278.446-.968-.11.282a50.066,50.066,0,0,1-3.033,5.766c-.576.917-1.171,1.814-1.816,2.692a6.635,6.635,0,0,1-.453.6c.776-.848.292-.374.12-.161-.4.484-.807.979-1.219,1.452a42.218,42.218,0,0,1-4.344,4.245,11.845,11.845,0,0,1-1.181.958c1.14-.717-.141.09-.443.313-.927.663-1.875,1.288-2.854,1.875a54.113,54.113,0,0,1-5.543,2.882c-1.23.556.786-.3-.474.2-.415.161-.827.313-1.24.464q-1.606.573-3.238,1-1.452.377-2.923.643c-.384.072-1.814.456-.494.1a9.54,9.54,0,0,1-1.683.172,40.808,40.808,0,0,1-6.181.021c-.251-.021-1.319.038-1.491-.143.031.031,1.148.192.182.021-.233-.038-.474-.079-.707-.12a29.605,29.605,0,0,1-2.953-.694c-.907-.264-1.814-.566-2.7-.909-.12-.049-.825-.333-.312-.12s-.182-.079-.3-.141c-.494-.223-.979-.464-1.452-.7a41.641,41.641,0,0,1-5.09-2.956,27.973,27.973,0,0,1-4.526-3.991,27.419,27.419,0,0,1-3.579-5,24.175,24.175,0,0,1-3.258-12.149C187.73,226.062,184.121,226.124,183.931,228.521Zm0,0" transform="translate(2925.77 -598.946)"/>
    <path id="Trazado_47109" data-name="Trazado 47109" d="M69.406,230.939c-2.208,8.407-.564,17.329,3.609,24.86a37.993,37.993,0,0,0,20.464,17.329,40.8,40.8,0,0,0,53.191-47.02c-.745-3.225-6.191-2.61-5.879.8a36.636,36.636,0,0,1,.082,5.758c-.061.927-.151,1.865-.254,2.792-.028.251-.049.494-.079.745.02-.161.09-.574-.02.161-.079.494-.161.979-.251,1.463a35.7,35.7,0,0,1-1.593,5.746c-.151.412-.313.817-.474,1.219-.243.594.213-.474-.051.113-.069.169-.151.341-.231.512-.415.909-.858,1.8-1.342,2.661s-1,1.724-1.542,2.562c-.241.364-.484.725-.735,1.078-.141.2-.292.4-.433.6-.092.131-.625.817-.133.182a37.077,37.077,0,0,1-3.9,4.244c-.684.635-1.4,1.23-2.116,1.824.684-.564-.151.113-.415.292-.453.323-.917.646-1.381.948-.817.535-1.662,1.03-2.521,1.493-.4.213-.807.423-1.219.625-.231.11-.474.223-.7.333-.123.059-1.13.5-.484.22.564-.241-.666.264-.858.333-.484.182-.979.354-1.46.525-.989.343-1.967.666-2.977.937-.945.251-1.893.474-2.851.656-.443.079-.9.161-1.353.231-1.078.182.172-.01.182-.02a5.06,5.06,0,0,1-.968.113,53.093,53.093,0,0,1-6.048.261c-.979-.021-1.947-.072-2.912-.151-.264-.021-.515-.051-.779-.082-.159-.018-.986-.131-.32-.038.625.09-.031-.01-.133-.031-.323-.051-.646-.11-.966-.161a36.533,36.533,0,0,1-5.828-1.573c-.484-.172-.968-.364-1.452-.553.807.33-.282-.143-.535-.254-.966-.453-1.924-.958-2.851-1.481-.748-.425-1.483-.868-2.2-1.353-.4-.271-.807-.564-1.212-.845-.1-.072-.6-.453-.069-.041-.192-.151-.394-.312-.584-.464a35.3,35.3,0,0,1-4.255-4.114,22.8,22.8,0,0,1-1.624-2.036c-.6-.856-1.178-1.734-1.714-2.631a29.231,29.231,0,0,1-2.521-5.433,26.376,26.376,0,0,1-1.281-12.219,2.159,2.159,0,0,0-1.46-2.572A2.112,2.112,0,0,0,69.406,230.939Zm0,0" transform="translate(2965.5 -608.631)"/>
    <g id="Grupo_11095" data-name="Grupo 11095" transform="translate(3087.108 -428.703)" clip-path="url(#clip-path-3)">
      <g id="Grupo_11094" data-name="Grupo 11094" transform="translate(0 0)" clip-path="url(#clip-path-4)">
        <path id="Trazado_47117" data-name="Trazado 47117" d="M149.527,156.8H189.8v40.268H149.527Zm0,0" transform="translate(-149.527 -156.797)"/>
      </g>
    </g>
    <g id="Grupo_11098" data-name="Grupo 11098" transform="translate(3099.588 -415.829)">
      <g id="Grupo_11097" data-name="Grupo 11097" transform="translate(0 0)">
        <g id="Grupo_11096" data-name="Grupo 11096" transform="translate(0 0)">
          <path id="Trazado_47120" data-name="Trazado 47120" d="M19.637-20.032a18.743,18.743,0,0,1-1.547,3.3,14.2,14.2,0,0,1-2.316,2.971,9.522,9.522,0,0,1-3.023,2.019,6.736,6.736,0,0,1-3.668.41,5.868,5.868,0,0,1-2.562-.984,7.883,7.883,0,0,1-1.9-1.885,10.979,10.979,0,0,1-1.312-2.521,16.942,16.942,0,0,1-.758-2.838A17.672,17.672,0,0,1,2.28-22.4a15.654,15.654,0,0,1,.154-2.572,21.957,21.957,0,0,1,.84-3.494,24.751,24.751,0,0,1,1.486-3.607,21.817,21.817,0,0,1,2.1-3.33,13.632,13.632,0,0,1,2.705-2.674,10.89,10.89,0,0,1,3.258-1.66,8.354,8.354,0,0,1,3.771-.256,5.8,5.8,0,0,1,2.305.861,6.273,6.273,0,0,1,1.721,1.6,6,6,0,0,1,.973,2.141,6.338,6.338,0,0,1,.113,2.459l-.051.328q-.092.657-.3,1.629a7.58,7.58,0,0,1-.625,1.8,4.3,4.3,0,0,1-1.107,1.393,2.179,2.179,0,0,1-1.752.4,2.866,2.866,0,0,1-1.855-.881,2.506,2.506,0,0,1-.369-2.049q.069-.511.184-1.014c.074-.333.138-.671.195-1.014a2.393,2.393,0,0,0-.082-1.24q-.2-.461-1.014-.584a2.6,2.6,0,0,0-1.732.348,5.6,5.6,0,0,0-1.516,1.353,11.751,11.751,0,0,0-1.281,2.019A20.327,20.327,0,0,0,9.391-28.1c-.287.8-.528,1.575-.717,2.326s-.318,1.391-.4,1.937q-.092.657-.154,1.527a8.516,8.516,0,0,0,.061,1.7A3.634,3.634,0,0,0,8.7-19.161a1.588,1.588,0,0,0,1.168.738,2.882,2.882,0,0,0,2.254-.512,4.417,4.417,0,0,0,1.424-1.957,5.555,5.555,0,0,1-.994-.379,3.048,3.048,0,0,1-.84-.615,2.7,2.7,0,0,1-.564-.881,2.22,2.22,0,0,1-.092-1.117,2.184,2.184,0,0,1,1.025-1.66,5.37,5.37,0,0,1,1.967-.707,10.136,10.136,0,0,1,2.213-.1q1.114.073,1.773.174.48.073,1.393.277a9.3,9.3,0,0,1,1.773.574,5.16,5.16,0,0,1,1.455.912,1.335,1.335,0,0,1,.492,1.23,3.981,3.981,0,0,1-1.107,2.305A3.144,3.144,0,0,1,19.637-20.032Zm0,0" transform="translate(-2.277 40.095)" fill="#ffde59"/>
        </g>
      </g>
    </g>
  </g>
</svg>
