<svg xmlns="http://www.w3.org/2000/svg" width="21.996" height="21.996" viewBox="0 0 21.996 21.996">
  <g id="leash_5066040" transform="translate(0.25 0.25)">
    <path id="Trazado_47882" data-name="Trazado 47882" d="M18.018,7.587H3.477a2.213,2.213,0,0,1,0-4.426H13.7c.652.466,2.778,1.9,4.315,1.9,1.95,0,3.477-1.111,3.477-2.529S19.968,0,18.018,0C16.481,0,14.355,1.431,13.7,1.9H3.477a3.477,3.477,0,0,0,0,6.954H18.018a2.213,2.213,0,0,1,0,4.426H15.173v-.894l-1-1H1l-1,1v3.053l1,1H5.06a3.161,3.161,0,1,0,5.054,0h4.057l1-1v-.894h2.845a3.477,3.477,0,1,0,0-6.954Zm0-6.322c1.3,0,2.213.666,2.213,1.264s-.909,1.264-2.213,1.264a7.132,7.132,0,0,1-2.99-1.263,7.229,7.229,0,0,1,2.99-1.265ZM6.146,12.644H9.028l.421,1.264-.421,1.264H6.146l-.421-1.264ZM1.526,15.173l-.262-.262V12.906l.262-.262H4.813l-.421,1.264.421,1.264Zm6.06,5.058a1.9,1.9,0,1,1,1.9-1.9A1.9,1.9,0,0,1,7.587,20.231Zm6.322-5.32-.262.262H10.36l.421-1.264-.421-1.264h3.287l.262.262Z"/>
    <path id="Trazado_47882_-_Contorno" data-name="Trazado 47882 - Contorno" d="M18.018-.25c2.09,0,3.727,1.221,3.727,2.779s-1.637,2.779-3.727,2.779c-1.532,0-3.537-1.29-4.4-1.9H3.477a1.963,1.963,0,0,0,0,3.926H18.018a3.727,3.727,0,1,1,0,7.454h-2.6v.748l-1.149,1.149h-3.7A3.376,3.376,0,0,1,11,18.335a3.411,3.411,0,1,1-6.822,0A3.376,3.376,0,0,1,4.6,16.688H.9L-.25,15.539v-3.26L.9,11.13H14.274l1.149,1.149v.748h2.6a1.963,1.963,0,1,0,0-3.926H3.477a3.727,3.727,0,0,1,0-7.454H13.623C14.481,1.04,16.486-.25,18.018-.25Zm0,5.058c1.81,0,3.227-1,3.227-2.279S19.828.25,18.018.25c-1.468,0-3.563,1.416-4.17,1.85l-.065.047H3.477a3.227,3.227,0,0,0,0,6.454H18.018a2.463,2.463,0,1,1,0,4.926h-3.1V12.486l-.856-.856H1.106l-.856.856v2.846l.856.856H5.56l-.3.4a2.883,2.883,0,0,0-.584,1.746,2.911,2.911,0,1,0,5.822,0,2.883,2.883,0,0,0-.584-1.746l-.3-.4h4.454l.856-.856V14.291h3.1a3.227,3.227,0,1,0,0-6.454H3.477a2.463,2.463,0,0,1,0-4.926H13.783l.065.047C14.455,3.392,16.55,4.808,18.018,4.808Zm0-3.793c1.335,0,2.463.694,2.463,1.514s-1.128,1.514-2.463,1.514a7.427,7.427,0,0,1-3.125-1.3l-.33-.211.33-.21A7.5,7.5,0,0,1,18.018,1.014Zm0,2.529c1.2,0,1.963-.6,1.963-1.014s-.765-1.014-1.963-1.014A5.965,5.965,0,0,0,15.5,2.53,5.911,5.911,0,0,0,18.018,3.543Zm-16.6,8.851H5.16l-.5,1.514.5,1.514H1.423l-.408-.408V12.8Zm3.043.5H1.63l-.115.115v1.8l.115.115H4.466l-.338-1.014Zm1.5-.5H9.208l.5,1.514-.5,1.514H5.965l-.5-1.514Zm2.882.5H6.326l-.338,1.014.338,1.014H8.847l.338-1.014Zm1.166-.5h3.737l.408.408v2.212l-.408.408H10.014l.5-1.514Zm3.53.5H10.707l.338,1.014-.338,1.014h2.836l.115-.115v-1.8ZM7.587,16.188A2.147,2.147,0,1,1,5.44,18.335,2.149,2.149,0,0,1,7.587,16.188Zm0,3.793A1.647,1.647,0,1,0,5.94,18.335,1.649,1.649,0,0,0,7.587,19.981Z"/>
    <path id="Trazado_47883" data-name="Trazado 47883" d="M165,420h1.264v1.264H165Z" transform="translate(-158.046 -402.298)"/>
    <path id="Trazado_47883_-_Contorno" data-name="Trazado 47883 - Contorno" d="M164.75,419.75h1.764v1.764H164.75Zm1.264.5h-.764v.764h.764Z" transform="translate(-158.046 -402.298)"/>
  </g>
</svg>
