<svg id="lock" xmlns="http://www.w3.org/2000/svg" width="22.116" height="22.116" viewBox="0 0 22.116 22.116">
  <path id="Trazado_47877" data-name="Trazado 47877" d="M20.744,11.372h.922a.924.924,0,0,1,.922.922v9.215a.924.924,0,0,1-.922.922H6.922A.924.924,0,0,1,6,21.509V12.294a.924.924,0,0,1,.922-.922h.922v-.922a6.451,6.451,0,1,1,12.9,0Zm-12.9,1.843v7.372h12.9V13.215Zm5.529,1.843h1.843v3.686H13.372ZM18.9,11.372v-.922a4.608,4.608,0,0,0-9.215,0v.922Z" transform="translate(-3.235 -2.157)"/>
  <path id="Trazado_47878" data-name="Trazado 47878" d="M0,0H22.116V22.116H0Z" fill="none"/>
</svg>
