<svg xmlns="http://www.w3.org/2000/svg" width="13.632" height="12.374" viewBox="0 0 13.632 12.374">
  <path id="paw-heart_14656010" d="M8.519,8.811a.577.577,0,0,1-.662.628A1.826,1.826,0,0,1,7.4,9.361a1.982,1.982,0,0,0-1.175,0c-.624.2-1.14,0-1.117-.55a1.779,1.779,0,0,1,1.7-1.622,1.777,1.777,0,0,1,1.7,1.622Zm.325-2.736c-.292-.034-.557.239-.6.734-.093,1.167.922,1.32,1.058.125.045-.494-.163-.824-.455-.859Zm-4.123,0c-.292.034-.5.364-.456.859.136,1.2,1.15,1.042,1.058-.125C5.278,6.314,5.014,6.041,4.722,6.075Zm1.869-.4c-.047-.495-.31-.768-.6-.734s-.5.364-.454.859C5.669,7,6.684,6.842,6.59,5.675Zm1.5.125c.045-.494-.164-.824-.456-.859s-.557.239-.6.734C6.943,6.843,7.957,6.995,8.093,5.8Zm5.539-.98c0,2.748-3.15,6.285-5.267,7.991A2.568,2.568,0,0,1,5.147,12.8C3.157,11.183,0,7.582,0,4.82A3.843,3.843,0,0,1,6.816,2.408,3.843,3.843,0,0,1,13.632,4.82Zm-1.136,0A2.7,2.7,0,0,0,7.657,3.168a1.1,1.1,0,0,1-1.683,0A2.7,2.7,0,0,0,1.136,4.82c0,2.248,2.767,5.514,4.732,7.115a1.4,1.4,0,0,0,1.78,0C10,10.044,12.5,6.906,12.5,4.82Z" transform="translate(0 -1)" fill=""/>
</svg>
