<svg xmlns="http://www.w3.org/2000/svg" width="12.864" height="12.871" viewBox="0 0 12.864 12.871">
  <path id="paw_5068845" d="M4.376,4.288a1.34,1.34,0,0,1-.846-.318,2.59,2.59,0,0,1-.835-1.748C2.565.886,3.293.1,4.081.009A1.423,1.423,0,0,1,5.145.328a2.24,2.24,0,0,1,.738,1.554C6,3.128,5.428,4.288,4.376,4.288ZM4.2,1.072c-.309.034-.494.473-.438,1.043A1.537,1.537,0,0,0,4.2,3.134a.289.289,0,0,0,.19.083c.188-.021.491-.5.42-1.233h0c-.183-1-.6-.911-.615-.908ZM1.7,7.5a1.34,1.34,0,0,1-.846-.318A2.59,2.59,0,0,1,.015,5.438C-.115,4.1.614,3.313,1.4,3.225a1.427,1.427,0,0,1,1.064.318A2.24,2.24,0,0,1,3.2,5.1C3.323,6.344,2.721,7.5,1.7,7.5ZM1.52,4.288c-.309.034-.494.473-.438,1.043A1.537,1.537,0,0,0,1.525,6.35a.3.3,0,0,0,.19.083c.188-.021.491-.5.42-1.233h0c-.142-.98-.6-.911-.615-.908Zm6.968,0c-.915.006-1.626-1.161-1.5-2.408h0A2.24,2.24,0,0,1,7.721.326,1.425,1.425,0,0,1,8.783.009C9.57.1,10.3.886,10.169,2.222A2.59,2.59,0,0,1,9.334,3.97,1.34,1.34,0,0,1,8.488,4.288Zm-.437-2.3h0c-.071.726.232,1.21.42,1.233a.3.3,0,0,0,.189-.078A1.537,1.537,0,0,0,9.1,2.12C9.214.715,8.147.807,8.05,1.984ZM11.168,7.5c-1,0-1.626-1.161-1.5-2.408h0A2.24,2.24,0,0,1,10.4,3.542a1.422,1.422,0,0,1,1.062-.318c.787.088,1.516.876,1.386,2.213a2.59,2.59,0,0,1-.835,1.748A1.34,1.34,0,0,1,11.168,7.5ZM10.73,5.2h0c-.071.726.232,1.21.42,1.233a.308.308,0,0,0,.189-.078,1.537,1.537,0,0,0,.443-1.018c.054-.57-.129-1.009-.438-1.043C11.33,4.288,10.781,4.241,10.73,5.2ZM8.576,12.864a2.6,2.6,0,0,1-1.312-.325,1.786,1.786,0,0,0-1.665,0c-1.615.905-3.5-.09-3.456-2.355C2.144,7.7,4.559,5.36,6.432,5.36S10.72,7.7,10.72,10.184C10.72,11.762,9.838,12.864,8.576,12.864ZM6.432,11.256a2.608,2.608,0,0,1,1.312.324c1.2.653,1.923-.232,1.9-1.4,0-1.812-1.887-3.752-3.216-3.752s-3.216,1.94-3.216,3.752c-.017,1.163.7,2.049,1.9,1.4A2.608,2.608,0,0,1,6.432,11.256Z" transform="translate(0 -0.001)"/>
</svg>
