<svg id="phone_lock" data-name="phone lock" xmlns="http://www.w3.org/2000/svg" width="23.632" height="23.632" viewBox="0 0 23.632 23.632">
  <path id="Trazado_47871" data-name="Trazado 47871" d="M22.8,4a.988.988,0,0,1,.985.985v6.893H21.816V5.969H11.969V21.724h4.923v1.969H10.985A.988.988,0,0,1,10,22.709V4.985A.988.988,0,0,1,10.985,4Zm0,9.847A2.956,2.956,0,0,1,25.755,16.8v.985h.985v4.923a.988.988,0,0,1-.985.985H19.847a.988.988,0,0,1-.985-.985V17.785h.985V16.8A2.956,2.956,0,0,1,22.8,13.847Zm1.969,5.908H20.831v1.969H24.77ZM22.8,15.816a1.014,1.014,0,0,0-.985.985v.985h1.969V16.8A.988.988,0,0,0,22.8,15.816Z" transform="translate(-5.077 -2.031)"/>
  <path id="Trazado_47872" data-name="Trazado 47872" d="M0,0H23.632V23.632H0Z" fill="none"/>
</svg>
