<svg id="settings" xmlns="http://www.w3.org/2000/svg" width="23.646" height="23.646" viewBox="0 0 23.646 23.646">
  <path id="Trazado_47861" data-name="Trazado 47861" d="M14.36,2l9.36,5.419V18.256l-9.36,5.419L5,18.256V7.419Zm0,2.276L6.97,8.557v8.562L14.36,21.4l7.389-4.281V8.557Zm0,12.5A3.941,3.941,0,1,1,18.3,12.838,3.94,3.94,0,0,1,14.36,16.778Zm0-1.97a1.97,1.97,0,1,0-1.97-1.97A1.97,1.97,0,0,0,14.36,14.808Z" transform="translate(-2.537 -1.015)"/>
  <path id="Trazado_47862" data-name="Trazado 47862" d="M0,0H23.646V23.646H0Z" fill="none"/>
</svg>
