<svg xmlns="http://www.w3.org/2000/svg" width="12.646" height="12.646" viewBox="0 0 12.646 12.646">
  <path id="shop_3916657" d="M12.646,5.269a.521.521,0,0,0-.013-.114l-.685-3.092A2.618,2.618,0,0,0,9.375,0h-6.1A2.618,2.618,0,0,0,.7,2.063L.013,5.155A.521.521,0,0,0,0,5.269V5.8A2.1,2.1,0,0,0,.527,7.189v2.823a2.638,2.638,0,0,0,2.635,2.635H9.484a2.638,2.638,0,0,0,2.635-2.635V7.189A2.1,2.1,0,0,0,12.646,5.8ZM1.054,5.327l.674-3.035A1.571,1.571,0,0,1,3.271,1.054h.417V2.635a.527.527,0,1,0,1.054,0V1.054H7.9V2.635a.527.527,0,1,0,1.054,0V1.054h.417a1.571,1.571,0,0,1,1.543,1.238l.674,3.035V5.8A1.054,1.054,0,0,1,10.538,6.85h-.527A1.054,1.054,0,0,1,8.958,5.8.527.527,0,0,0,7.9,5.8,1.054,1.054,0,0,1,6.85,6.85H5.8A1.054,1.054,0,0,1,4.742,5.8a.527.527,0,1,0-1.054,0A1.054,1.054,0,0,1,2.635,6.85H2.108A1.054,1.054,0,0,1,1.054,5.8Zm8.431,6.266H3.161a1.581,1.581,0,0,1-1.581-1.581V7.837a2.1,2.1,0,0,0,.527.067h.527a2.1,2.1,0,0,0,1.581-.715A2.1,2.1,0,0,0,5.8,7.9H6.85a2.1,2.1,0,0,0,1.581-.715,2.1,2.1,0,0,0,1.581.715h.527a2.1,2.1,0,0,0,.527-.067v2.175A1.581,1.581,0,0,1,9.484,11.592Z" transform="translate(0 0)" fill=""/>
</svg>
