<svg xmlns="http://www.w3.org/2000/svg" width="24.74" height="22.491" viewBox="0 0 24.74 22.491">
  <path id="Trazado_48471" data-name="Trazado 48471" d="M19.856,4.249a5.61,5.61,0,0,0,0,2.249H6.823l8.49,7.49L20.992,8.9a5.541,5.541,0,0,0,1.76,1.445L15.324,17,6.249,8.989V22.242H24.242V10.884a5.61,5.61,0,0,0,2.249,0V23.367a1.128,1.128,0,0,1-1.125,1.125H5.125A1.128,1.128,0,0,1,4,23.367V5.374A1.128,1.128,0,0,1,5.125,4.249Zm5.51,4.5A3.374,3.374,0,1,1,28.74,5.374,3.376,3.376,0,0,1,25.367,8.747Z" transform="translate(-4 -2)"/>
</svg>
