<svg id="store_2" data-name="store 2" xmlns="http://www.w3.org/2000/svg" width="22.406" height="22.406" viewBox="0 0 22.406 22.406">
  <path id="Trazado_47867" data-name="Trazado 47867" d="M20.671,14.493V20.8h.934v1.867H2.934V20.8h.934V14.493A4.2,4.2,0,0,1,2.593,8.85l2.53-4.383A.935.935,0,0,1,5.93,4H18.608a.935.935,0,0,1,.808.467l2.525,4.369A4.2,4.2,0,0,1,20.671,14.493Zm-1.867.682a4.182,4.182,0,0,1-3.5-1.27,4.2,4.2,0,0,1-6.068,0,4.21,4.21,0,0,1-3.5,1.27V20.8H18.8V15.18ZM6.472,5.867,4.2,9.8A2.333,2.333,0,0,0,8.367,11.87a.935.935,0,0,1,1.736,0,2.33,2.33,0,0,0,4.332,0,.935.935,0,0,1,1.736,0,2.334,2.334,0,1,0,4.159-2.087L18.067,5.867Z" transform="translate(-1.066 -2.133)"/>
  <path id="Trazado_47868" data-name="Trazado 47868" d="M0,0H22.406V22.406H0Z" fill="none"/>
</svg>
