<svg xmlns="http://www.w3.org/2000/svg" width="22.176" height="23.011" viewBox="0 0 22.176 23.011">
  <path id="Trazado_47469" data-name="Trazado 47469" d="M5.847,21.251A11.626,11.626,0,0,1,4.72,18.576a3.455,3.455,0,0,0,.006-6.154A11.435,11.435,0,0,1,7.6,7.436,3.448,3.448,0,0,0,12.927,4.36a11.44,11.44,0,0,1,5.763.006,3.448,3.448,0,0,0,5.325,3.071,11.334,11.334,0,0,1,1.754,2.312A11.612,11.612,0,0,1,26.9,12.423a3.455,3.455,0,0,0-.006,6.154,11.435,11.435,0,0,1-2.876,4.986,3.448,3.448,0,0,0-5.325,3.077,11.44,11.44,0,0,1-5.763-.006A3.448,3.448,0,0,0,7.6,23.562,11.613,11.613,0,0,1,5.847,21.251Zm6.51.224a5.752,5.752,0,0,1,2.588,3.186,8.648,8.648,0,0,0,1.725,0,5.753,5.753,0,0,1,6.642-3.836,9.127,9.127,0,0,0,.863-1.49,5.75,5.75,0,0,1,0-7.672,9.564,9.564,0,0,0-.863-1.49,5.753,5.753,0,0,1-6.642-3.836,8.648,8.648,0,0,0-1.725,0A5.753,5.753,0,0,1,8.3,10.174a9.127,9.127,0,0,0-.863,1.49,5.75,5.75,0,0,1,0,7.672,9.564,9.564,0,0,0,.863,1.49A5.765,5.765,0,0,1,12.357,21.475Zm3.451-2.525A3.451,3.451,0,1,1,19.259,15.5,3.453,3.453,0,0,1,15.808,18.95Zm0-2.3a1.15,1.15,0,1,0-1.15-1.15A1.154,1.154,0,0,0,15.808,16.65Z" transform="translate(-4.72 -3.994)"/>
</svg>
