<svg xmlns="http://www.w3.org/2000/svg" width="11.675" height="15.542" viewBox="0 0 11.675 15.542">
  <path id="tree-alt_12088685" d="M14.33,11.236c-.014-.019-1.01-1.177-1.01-1.177a1.732,1.732,0,0,0,.4-2.376C13.7,7.659,12.5,6.327,12.5,6.327a1.6,1.6,0,0,0,.7-.7,1.573,1.573,0,0,0-.114-1.639C13.071,3.973,10.059.564,10.059.564a1.693,1.693,0,0,0-2.446,0S4.6,3.973,4.587,3.992a1.575,1.575,0,0,0-.114,1.639,1.6,1.6,0,0,0,.7.7S3.97,7.659,3.953,7.683a1.732,1.732,0,0,0,.4,2.376s-1,1.158-1.01,1.177a1.946,1.946,0,0,0,1.6,3.05H8.186v.649a.649.649,0,0,0,1.3,0v-.649h3.242a1.946,1.946,0,0,0,1.6-3.05ZM13.3,12.642a.634.634,0,0,1-.574.347H9.486V7.151a.649.649,0,0,0-1.3,0v5.839H4.947A.649.649,0,0,1,4.4,12L5.973,10.17A.649.649,0,0,0,5.482,9.1h-.1a.432.432,0,0,1-.374-.649L6.965,6.29a.649.649,0,0,0-.481-1.085H5.921a.317.317,0,0,1-.293-.171.271.271,0,0,1,.007-.271l2.952-3.34a.341.341,0,0,1,.5,0l2.952,3.34a.272.272,0,0,1,.007.271.317.317,0,0,1-.293.171h-.563a.649.649,0,0,0-.481,1.085l1.959,2.159A.432.432,0,0,1,12.3,9.1h-.1A.649.649,0,0,0,11.7,10.17L13.281,12a.634.634,0,0,1,.024.645Z" transform="translate(-2.997 -0.042)" fill=""/>
</svg>
