<svg xmlns="http://www.w3.org/2000/svg" width="12.822" height="12.805" viewBox="0 0 12.822 12.805">
  <path id="umbrella-beach_9240013" d="M12.279,11.752a2.318,2.318,0,0,1-.777-.227,3.146,3.146,0,0,0-1.181-.306,3.146,3.146,0,0,0-1.181.306,2.322,2.322,0,0,1-.777.227,2.322,2.322,0,0,1-.777-.227,3.146,3.146,0,0,0-1.181-.306,3.146,3.146,0,0,0-1.181.306,3.731,3.731,0,0,1-.584.2l2-4.522,3.836,1.749a1.565,1.565,0,0,0,1.376-.034A1.583,1.583,0,0,0,12.69,7.81,6.476,6.476,0,0,0,9.173.584a6.386,6.386,0,0,0-7.79,2.053,1.653,1.653,0,0,0-.261,1.4,1.6,1.6,0,0,0,.885,1.058L5.672,6.764,3.58,11.488a2.924,2.924,0,0,0-1.09-.27,3.146,3.146,0,0,0-1.181.306,2.318,2.318,0,0,1-.777.227.534.534,0,0,0,0,1.068,3.146,3.146,0,0,0,1.181-.306,2.318,2.318,0,0,1,.777-.227,2.318,2.318,0,0,1,.777.227,3.146,3.146,0,0,0,1.181.306,3.146,3.146,0,0,0,1.181-.306,2.318,2.318,0,0,1,.777-.227,2.318,2.318,0,0,1,.777.227,3.146,3.146,0,0,0,1.181.306,3.146,3.146,0,0,0,1.181-.306,2.322,2.322,0,0,1,.777-.227,2.322,2.322,0,0,1,.777.227,3.146,3.146,0,0,0,1.181.306.534.534,0,1,0,0-1.068ZM2.155,3.762a.59.59,0,0,1,.092-.5A5.384,5.384,0,0,1,8.73,1.555a5.412,5.412,0,0,1,2.912,6.05.515.515,0,0,1-.273.366.5.5,0,0,1-.445.012L2.451,4.121a.537.537,0,0,1-.3-.359Z" transform="translate(0.001 -0.015)" fill=""/>
</svg>
