<svg xmlns="http://www.w3.org/2000/svg" width="15.5" height="15.5" viewBox="0 0 15.5 15.5">
  <path id="Unión_2" data-name="Unión 2" d="M-3559.94,15.214l-6.774-6.773a.972.972,0,0,1-.278-.814l.015-.085c0-.016.007-.031.011-.044V7.493c0-.005,0-.012.005-.019l.036-.1a.967.967,0,0,1,.168-.268l.041-.044,6.775-6.774A.965.965,0,0,1-3559.25,0a.969.969,0,0,1,.69.286.978.978,0,0,1,0,1.38l-5.109,5.108h11.193a.976.976,0,0,1,.976.976.976.976,0,0,1-.976.976h-11.192l5.108,5.108a.979.979,0,0,1,0,1.381.972.972,0,0,1-.69.285A.969.969,0,0,1-3559.94,15.214Z" transform="translate(3567)" fill="#1b1b1b"/>
</svg>
