<svg xmlns="http://www.w3.org/2000/svg" width="24.743" height="22.491" viewBox="0 0 24.743 22.491">
  <path id="tab-servicios" d="M24.491,16.64v7.6h1.125v2.249H3.125V24.242H4.249v-7.6a5.059,5.059,0,0,1-1.535-6.8l3.048-5.28A1.126,1.126,0,0,1,6.734,4H22.006a1.126,1.126,0,0,1,.973.562L26.02,9.825A5.059,5.059,0,0,1,24.491,16.64Zm-2.249.821a5.037,5.037,0,0,1-4.217-1.529,5.061,5.061,0,0,1-7.31.006A5.071,5.071,0,0,1,6.5,17.466v6.775H22.242V17.466ZM7.387,6.249l-2.738,4.74A2.811,2.811,0,0,0,9.669,13.48a1.126,1.126,0,0,1,2.092,0,2.807,2.807,0,0,0,5.218,0,1.126,1.126,0,0,1,2.092,0,2.811,2.811,0,1,0,5.01-2.513L21.353,6.249Z" transform="translate(-2 -4)" fill="#c1bbbb"/>
</svg>
