<svg xmlns="http://www.w3.org/2000/svg" width="17.136" height="22.491" viewBox="0 0 17.136 22.491">
  <path id="tab-perfil" d="M25.136,24.491H22.994V22.349a3.216,3.216,0,0,0-3.213-3.213H13.355a3.216,3.216,0,0,0-3.213,3.213v2.142H8V22.349a5.357,5.357,0,0,1,5.355-5.355h6.426a5.357,5.357,0,0,1,5.355,5.355Zm-8.568-9.639a6.426,6.426,0,1,1,6.426-6.426A6.424,6.424,0,0,1,16.568,14.852Zm0-2.142a4.284,4.284,0,1,0-4.284-4.284A4.283,4.283,0,0,0,16.568,12.71Z" transform="translate(-8 -2)" fill="#c1bbbb"/>
</svg>
